<svg width="696" height="129" viewBox="0 0 696 129" fill="none" xmlns="http://www.w3.org/2000/svg">
<g filter="url(#filter0_d_20_1544)">
<g opacity="0.7">
<mask id="path-1-inside-1_20_1544" fill="white">
<path d="M6 34.7766C6 25.7592 13.3101 18.4491 22.3275 18.4491H232.953C241.97 18.4491 249.28 25.7592 249.28 34.7766V61.7171C249.28 70.7346 241.97 78.0446 232.953 78.0446H22.3275C13.3101 78.0446 6 70.7345 6 61.7171V34.7766Z"/>
</mask>
<path d="M6 34.7766C6 25.7592 13.3101 18.4491 22.3275 18.4491H232.953C241.97 18.4491 249.28 25.7592 249.28 34.7766V61.7171C249.28 70.7346 241.97 78.0446 232.953 78.0446H22.3275C13.3101 78.0446 6 70.7345 6 61.7171V34.7766Z" fill="white"/>
<path d="M6 18.4491H249.28H6ZM249.28 61.7171C249.28 71.1854 241.605 78.861 232.136 78.861H23.1439C13.6756 78.861 6 71.1854 6 61.7171V61.7171C6 70.2837 13.3101 77.2283 22.3275 77.2283H232.953C241.97 77.2283 249.28 70.2837 249.28 61.7171V61.7171ZM6 78.0446V18.4491V78.0446ZM249.28 18.4491V78.0446V18.4491Z" fill="#151439" fill-opacity="0.4" mask="url(#path-1-inside-1_20_1544)"/>
</g>
<path opacity="0.5" d="M79.8264 55V38.3756H90.2491V40.5348H82.3347V45.6001H89.7053V47.7512H82.3347V52.8408H90.3465V55H79.8264ZM95.5491 42.5317L98.3009 47.3859L101.077 42.5317H103.731L99.8432 48.7658L103.764 55H101.109L98.3009 50.3406L95.5004 55H92.8379L96.718 48.7658L92.8866 42.5317H95.5491ZM106.452 59.6756V42.5317H108.822V44.5529H109.025C109.166 44.2932 109.369 43.9928 109.634 43.6519C109.899 43.311 110.267 43.0133 110.738 42.759C111.209 42.4992 111.831 42.3693 112.605 42.3693C113.612 42.3693 114.51 42.6237 115.3 43.1324C116.09 43.6411 116.71 44.3743 117.159 45.3322C117.613 46.29 117.841 47.4427 117.841 48.7902C117.841 50.1377 117.616 51.2931 117.167 52.2563C116.718 53.2142 116.101 53.9529 115.316 54.4724C114.532 54.9865 113.636 55.2435 112.629 55.2435C111.872 55.2435 111.252 55.1163 110.77 54.862C110.294 54.6077 109.921 54.31 109.65 53.9691C109.38 53.6282 109.171 53.3251 109.025 53.0599H108.879V59.6756H106.452ZM108.83 48.7658C108.83 49.6425 108.958 50.411 109.212 51.0712C109.466 51.7314 109.834 52.2482 110.316 52.6216C110.798 52.9896 111.387 53.1736 112.085 53.1736C112.811 53.1736 113.417 52.9815 113.904 52.5973C114.391 52.2076 114.759 51.68 115.008 51.0144C115.262 50.3487 115.389 49.5992 115.389 48.7658C115.389 47.9433 115.265 47.2046 115.016 46.5498C114.772 45.895 114.404 45.3782 113.912 44.9994C113.425 44.6206 112.816 44.4312 112.085 44.4312C111.382 44.4312 110.787 44.6125 110.3 44.975C109.818 45.3376 109.453 45.8436 109.204 46.493C108.955 47.1424 108.83 47.9 108.83 48.7658ZM126.162 55.2516C124.934 55.2516 123.876 54.9892 122.988 54.4643C122.106 53.9339 121.424 53.1898 120.943 52.232C120.467 51.2687 120.229 50.1404 120.229 48.847C120.229 47.5699 120.467 46.4443 120.943 45.4702C121.424 44.4961 122.096 43.7358 122.956 43.1892C123.822 42.6426 124.834 42.3693 125.992 42.3693C126.695 42.3693 127.377 42.4857 128.037 42.7184C128.698 42.9511 129.29 43.3164 129.815 43.8142C130.34 44.3121 130.754 44.9588 131.057 45.7543C131.36 46.5444 131.512 47.5049 131.512 48.636V49.4964H121.6V47.6781H129.133C129.133 47.0395 129.003 46.474 128.744 45.9816C128.484 45.4837 128.119 45.0914 127.648 44.8046C127.182 44.5177 126.636 44.3743 126.008 44.3743C125.326 44.3743 124.731 44.5421 124.222 44.8776C123.719 45.2077 123.329 45.6407 123.053 46.1764C122.783 46.7067 122.647 47.2831 122.647 47.9054V49.3259C122.647 50.1593 122.794 50.8683 123.086 51.4527C123.383 52.0372 123.797 52.4836 124.328 52.7921C124.858 53.0951 125.478 53.2466 126.187 53.2466C126.647 53.2466 127.066 53.1817 127.445 53.0518C127.824 52.9165 128.151 52.7163 128.427 52.4511C128.703 52.186 128.914 51.8586 129.06 51.4689L131.357 51.8829C131.173 52.5594 130.843 53.1519 130.367 53.6606C129.896 54.1639 129.304 54.5562 128.589 54.8377C127.881 55.1136 127.071 55.2516 126.162 55.2516ZM136.86 47.5969V55H134.433V42.5317H136.763V44.561H136.917C137.204 43.9008 137.653 43.3705 138.265 42.97C138.882 42.5696 139.658 42.3693 140.594 42.3693C141.444 42.3693 142.188 42.5479 142.827 42.9051C143.465 43.2568 143.96 43.7818 144.312 44.4799C144.664 45.178 144.84 46.0411 144.84 47.0693V55H142.413V47.3615C142.413 46.4578 142.177 45.7516 141.706 45.2429C141.236 44.7288 140.589 44.4717 139.766 44.4717C139.204 44.4717 138.703 44.5935 138.265 44.837C137.832 45.0806 137.488 45.4377 137.234 45.9085C136.985 46.3739 136.86 46.9367 136.86 47.5969ZM157.666 45.5757L155.467 45.9653C155.375 45.6839 155.229 45.4161 155.028 45.1617C154.833 44.9074 154.568 44.699 154.233 44.5367C153.897 44.3743 153.478 44.2932 152.975 44.2932C152.287 44.2932 151.714 44.4474 151.254 44.7559C150.794 45.0589 150.564 45.4512 150.564 45.9329C150.564 46.3496 150.718 46.6851 151.026 46.9394C151.335 47.1938 151.833 47.4021 152.52 47.5645L154.501 48.019C155.648 48.2842 156.503 48.6928 157.066 49.2448C157.629 49.7968 157.91 50.5138 157.91 51.3959C157.91 52.1427 157.694 52.8083 157.261 53.3928C156.833 53.9718 156.235 54.4264 155.467 54.7565C154.704 55.0866 153.819 55.2516 152.812 55.2516C151.416 55.2516 150.277 54.954 149.395 54.3587C148.513 53.758 147.972 52.9057 147.771 51.8017L150.117 51.4446C150.263 52.0561 150.564 52.5188 151.018 52.8327C151.473 53.1411 152.065 53.2953 152.796 53.2953C153.592 53.2953 154.227 53.1303 154.704 52.8002C155.18 52.4647 155.418 52.0561 155.418 51.5745C155.418 51.1848 155.272 50.8574 154.98 50.5923C154.693 50.3271 154.252 50.1269 153.656 49.9916L151.546 49.5289C150.382 49.2637 149.522 48.8416 148.965 48.2626C148.413 47.6835 148.137 46.9503 148.137 46.0628C148.137 45.3268 148.342 44.6828 148.754 44.1308C149.165 43.5788 149.733 43.1486 150.458 42.8402C151.183 42.5263 152.014 42.3693 152.95 42.3693C154.298 42.3693 155.358 42.6616 156.132 43.246C156.906 43.8251 157.418 44.6016 157.666 45.5757ZM166.181 55.2516C164.952 55.2516 163.894 54.9892 163.007 54.4643C162.125 53.9339 161.443 53.1898 160.961 52.232C160.485 51.2687 160.247 50.1404 160.247 48.847C160.247 47.5699 160.485 46.4443 160.961 45.4702C161.443 44.4961 162.114 43.7358 162.975 43.1892C163.84 42.6426 164.852 42.3693 166.01 42.3693C166.714 42.3693 167.396 42.4857 168.056 42.7184C168.716 42.9511 169.309 43.3164 169.834 43.8142C170.359 44.3121 170.773 44.9588 171.076 45.7543C171.379 46.5444 171.53 47.5049 171.53 48.636V49.4964H161.619V47.6781H169.152C169.152 47.0395 169.022 46.474 168.762 45.9816C168.502 45.4837 168.137 45.0914 167.666 44.8046C167.201 44.5177 166.654 44.3743 166.027 44.3743C165.345 44.3743 164.75 44.5421 164.241 44.8776C163.738 45.2077 163.348 45.6407 163.072 46.1764C162.801 46.7067 162.666 47.2831 162.666 47.9054V49.3259C162.666 50.1593 162.812 50.8683 163.104 51.4527C163.402 52.0372 163.816 52.4836 164.346 52.7921C164.877 53.0951 165.496 53.2466 166.205 53.2466C166.665 53.2466 167.085 53.1817 167.463 53.0518C167.842 52.9165 168.17 52.7163 168.446 52.4511C168.722 52.186 168.933 51.8586 169.079 51.4689L171.376 51.8829C171.192 52.5594 170.862 53.1519 170.386 53.6606C169.915 54.1639 169.322 54.5562 168.608 54.8377C167.899 55.1136 167.09 55.2516 166.181 55.2516Z" fill="black"/>
</g>
<g filter="url(#filter1_d_20_1544)">
<g opacity="0.7">
<mask id="path-4-inside-2_20_1544" fill="white">
<path d="M265.608 34.7766C265.608 25.7592 272.918 18.4491 281.935 18.4491H492.561C501.578 18.4491 508.888 25.7592 508.888 34.7766V61.7171C508.888 70.7346 501.578 78.0446 492.561 78.0446H281.935C272.918 78.0446 265.608 70.7345 265.608 61.7171V34.7766Z"/>
</mask>
<path d="M265.608 34.7766C265.608 25.7592 272.918 18.4491 281.935 18.4491H492.561C501.578 18.4491 508.888 25.7592 508.888 34.7766V61.7171C508.888 70.7346 501.578 78.0446 492.561 78.0446H281.935C272.918 78.0446 265.608 70.7345 265.608 61.7171V34.7766Z" fill="white"/>
<path d="M265.608 18.4491H508.888H265.608ZM508.888 61.7171C508.888 71.1854 501.213 78.861 491.744 78.861H282.752C273.284 78.861 265.608 71.1854 265.608 61.7171V61.7171C265.608 70.2837 272.918 77.2283 281.935 77.2283H492.561C501.578 77.2283 508.888 70.2837 508.888 61.7171V61.7171ZM265.608 78.0446V18.4491V78.0446ZM508.888 18.4491V78.0446V18.4491Z" fill="#151439" fill-opacity="0.4" mask="url(#path-4-inside-2_20_1544)"/>
</g>
<path opacity="0.5" d="M344.231 55H341.568L347.551 38.3756H350.449L356.431 55H353.769L349.069 41.3953H348.939L344.231 55ZM344.677 48.4899H353.314V50.6004H344.677V48.4899ZM358.866 55V42.5317H361.195V44.561H361.35C361.609 43.8738 362.034 43.338 362.624 42.9538C363.214 42.5642 363.92 42.3693 364.743 42.3693C365.576 42.3693 366.274 42.5642 366.837 42.9538C367.405 43.3434 367.825 43.8792 368.095 44.561H368.225C368.523 43.8954 368.996 43.3651 369.646 42.97C370.295 42.5696 371.069 42.3693 371.967 42.3693C373.098 42.3693 374.021 42.7238 374.735 43.4327C375.455 44.1416 375.815 45.2104 375.815 46.6391V55H373.388V46.8664C373.388 46.0222 373.158 45.4107 372.698 45.0318C372.238 44.653 371.688 44.4636 371.05 44.4636C370.26 44.4636 369.646 44.7072 369.207 45.1942C368.769 45.6758 368.55 46.2955 368.55 47.0531V55H366.131V46.7121C366.131 46.0357 365.92 45.4918 365.498 45.0806C365.075 44.6693 364.526 44.4636 363.85 44.4636C363.39 44.4636 362.965 44.5854 362.575 44.8289C362.191 45.067 361.88 45.3998 361.642 45.8274C361.409 46.2549 361.293 46.75 361.293 47.3128V55H358.866ZM384.548 55.2516C383.379 55.2516 382.359 54.9838 381.488 54.448C380.617 53.9123 379.94 53.1628 379.459 52.1995C378.977 51.2362 378.736 50.1106 378.736 48.8227C378.736 47.5293 378.977 46.3983 379.459 45.4296C379.94 44.4609 380.617 43.7087 381.488 43.173C382.359 42.6372 383.379 42.3693 384.548 42.3693C385.717 42.3693 386.737 42.6372 387.609 43.173C388.48 43.7087 389.156 44.4609 389.638 45.4296C390.12 46.3983 390.36 47.5293 390.36 48.8227C390.36 50.1106 390.12 51.2362 389.638 52.1995C389.156 53.1628 388.48 53.9123 387.609 54.448C386.737 54.9838 385.717 55.2516 384.548 55.2516ZM384.556 53.2142C385.314 53.2142 385.942 53.0139 386.44 52.6135C386.938 52.213 387.306 51.68 387.544 51.0144C387.787 50.3487 387.909 49.6155 387.909 48.8146C387.909 48.019 387.787 47.2885 387.544 46.6229C387.306 45.9518 386.938 45.4134 386.44 45.0075C385.942 44.6016 385.314 44.3987 384.556 44.3987C383.793 44.3987 383.16 44.6016 382.657 45.0075C382.159 45.4134 381.788 45.9518 381.545 46.6229C381.307 47.2885 381.188 48.019 381.188 48.8146C381.188 49.6155 381.307 50.3487 381.545 51.0144C381.788 51.68 382.159 52.213 382.657 52.6135C383.16 53.0139 383.793 53.2142 384.556 53.2142ZM401.196 49.8292V42.5317H403.632V55H401.245V52.8408H401.115C400.828 53.5064 400.368 54.0611 399.735 54.5048C399.107 54.9432 398.325 55.1623 397.389 55.1623C396.588 55.1623 395.879 54.9865 395.263 54.6347C394.651 54.2776 394.169 53.7499 393.818 53.0518C393.471 52.3537 393.298 51.4906 393.298 50.4624V42.5317H395.725V50.1702C395.725 51.0198 395.961 51.6962 396.431 52.1995C396.902 52.7028 397.514 52.9544 398.266 52.9544C398.721 52.9544 399.172 52.8408 399.622 52.6135C400.076 52.3862 400.452 52.0426 400.75 51.5826C401.053 51.1226 401.202 50.5381 401.196 49.8292ZM409.548 47.5969V55H407.121V42.5317H409.451V44.561H409.605C409.892 43.9008 410.341 43.3705 410.953 42.97C411.57 42.5696 412.346 42.3693 413.282 42.3693C414.132 42.3693 414.876 42.5479 415.515 42.9051C416.153 43.2568 416.648 43.7818 417 44.4799C417.352 45.178 417.528 46.0411 417.528 47.0693V55H415.101V47.3615C415.101 46.4578 414.865 45.7516 414.394 45.2429C413.924 44.7288 413.277 44.4717 412.454 44.4717C411.892 44.4717 411.391 44.5935 410.953 44.837C410.52 45.0806 410.176 45.4377 409.922 45.9085C409.673 46.3739 409.548 46.9367 409.548 47.5969ZM426.832 42.5317V44.4799H420.021V42.5317H426.832ZM421.848 39.5445H424.275V51.3391C424.275 51.8099 424.345 52.1643 424.486 52.4024C424.626 52.6351 424.808 52.7948 425.03 52.8814C425.257 52.9625 425.503 53.0031 425.768 53.0031C425.963 53.0031 426.134 52.9896 426.28 52.9625C426.426 52.9355 426.539 52.9138 426.621 52.8976L427.059 54.9026C426.918 54.9567 426.718 55.0108 426.458 55.0649C426.198 55.1245 425.874 55.1569 425.484 55.1623C424.846 55.1732 424.25 55.0595 423.698 54.8214C423.146 54.5833 422.7 54.2153 422.359 53.7175C422.018 53.2196 421.848 52.5945 421.848 51.8423V39.5445Z" fill="black"/>
</g>
<g filter="url(#filter2_dd_20_1544)">
<rect x="525.216" y="16" width="138" height="65" rx="13.0045" fill="#6496EB"/>
</g>
<g filter="url(#filter3_d_20_1544)">
<path d="M584.408 55H587.295L582.398 41.3648H579.219L574.323 55H577.19L578.087 52.4056H583.51L584.408 55ZM582.769 50.2208H578.829L580.799 44.5249L582.769 50.2208ZM594.088 41.3843H589.328V55H594.088C598.438 55 601.266 52.3276 601.266 48.2116C601.266 44.0762 598.438 41.3843 594.088 41.3843ZM592.059 52.6787V43.6861H593.99C596.858 43.6861 598.477 45.3832 598.477 48.2116C598.477 51.0401 596.858 52.6787 593.99 52.6787H592.059ZM608.273 41.3843H603.514V55H608.273C612.623 55 615.452 52.3276 615.452 48.2116C615.452 44.0762 612.623 41.3843 608.273 41.3843ZM606.245 52.6787V43.6861H608.176C611.043 43.6861 612.662 45.3832 612.662 48.2116C612.662 51.0401 611.043 52.6787 608.176 52.6787H606.245Z" fill="white"/>
</g>
<defs>
<filter id="filter0_d_20_1544" x="0.28536" y="11.9181" width="254.71" height="71.0249" filterUnits="userSpaceOnUse" color-interpolation-filters="sRGB">
<feFlood flood-opacity="0" result="BackgroundImageFix"/>
<feColorMatrix in="SourceAlpha" type="matrix" values="0 0 0 0 0 0 0 0 0 0 0 0 0 0 0 0 0 0 127 0" result="hardAlpha"/>
<feOffset dy="-0.816377"/>
<feGaussianBlur stdDeviation="2.85732"/>
<feComposite in2="hardAlpha" operator="out"/>
<feColorMatrix type="matrix" values="0 0 0 0 0 0 0 0 0 0 0 0 0 0 0 0 0 0 0.25 0"/>
<feBlend mode="normal" in2="BackgroundImageFix" result="effect1_dropShadow_20_1544"/>
<feBlend mode="normal" in="SourceGraphic" in2="effect1_dropShadow_20_1544" result="shape"/>
</filter>
<filter id="filter1_d_20_1544" x="259.893" y="11.9181" width="254.71" height="71.0249" filterUnits="userSpaceOnUse" color-interpolation-filters="sRGB">
<feFlood flood-opacity="0" result="BackgroundImageFix"/>
<feColorMatrix in="SourceAlpha" type="matrix" values="0 0 0 0 0 0 0 0 0 0 0 0 0 0 0 0 0 0 127 0" result="hardAlpha"/>
<feOffset dy="-0.816377"/>
<feGaussianBlur stdDeviation="2.85732"/>
<feComposite in2="hardAlpha" operator="out"/>
<feColorMatrix type="matrix" values="0 0 0 0 0 0 0 0 0 0 0 0 0 0 0 0 0 0 0.25 0"/>
<feBlend mode="normal" in2="BackgroundImageFix" result="effect1_dropShadow_20_1544"/>
<feBlend mode="normal" in="SourceGraphic" in2="effect1_dropShadow_20_1544" result="shape"/>
</filter>
<filter id="filter2_dd_20_1544" x="493.216" y="0" width="202" height="129" filterUnits="userSpaceOnUse" color-interpolation-filters="sRGB">
<feFlood flood-opacity="0" result="BackgroundImageFix"/>
<feColorMatrix in="SourceAlpha" type="matrix" values="0 0 0 0 0 0 0 0 0 0 0 0 0 0 0 0 0 0 127 0" result="hardAlpha"/>
<feOffset dy="16"/>
<feGaussianBlur stdDeviation="16"/>
<feColorMatrix type="matrix" values="0 0 0 0 0.14902 0 0 0 0 0.196078 0 0 0 0 0.219608 0 0 0 0.08 0"/>
<feBlend mode="multiply" in2="BackgroundImageFix" result="effect1_dropShadow_20_1544"/>
<feColorMatrix in="SourceAlpha" type="matrix" values="0 0 0 0 0 0 0 0 0 0 0 0 0 0 0 0 0 0 127 0" result="hardAlpha"/>
<feOffset dy="8"/>
<feGaussianBlur stdDeviation="12"/>
<feColorMatrix type="matrix" values="0 0 0 0 0.14902 0 0 0 0 0.196078 0 0 0 0 0.219608 0 0 0 0.1 0"/>
<feBlend mode="multiply" in2="effect1_dropShadow_20_1544" result="effect2_dropShadow_20_1544"/>
<feBlend mode="normal" in="SourceGraphic" in2="effect2_dropShadow_20_1544" result="shape"/>
</filter>
<filter id="filter3_d_20_1544" x="564.526" y="33.201" width="60.722" height="33.2283" filterUnits="userSpaceOnUse" color-interpolation-filters="sRGB">
<feFlood flood-opacity="0" result="BackgroundImageFix"/>
<feColorMatrix in="SourceAlpha" type="matrix" values="0 0 0 0 0 0 0 0 0 0 0 0 0 0 0 0 0 0 127 0" result="hardAlpha"/>
<feOffset dy="1.63275"/>
<feGaussianBlur stdDeviation="4.89826"/>
<feColorMatrix type="matrix" values="0 0 0 0 0.14902 0 0 0 0 0.196078 0 0 0 0 0.219608 0 0 0 0.08 0"/>
<feBlend mode="multiply" in2="BackgroundImageFix" result="effect1_dropShadow_20_1544"/>
<feBlend mode="normal" in="SourceGraphic" in2="effect1_dropShadow_20_1544" result="shape"/>
</filter>
</defs>
</svg>
