<svg width="561" height="330" viewBox="0 0 561 330" fill="none" xmlns="http://www.w3.org/2000/svg">
<g filter="url(#filter0_d_43_1430)">
<g opacity="0.7">
<mask id="path-1-inside-1_43_1430" fill="white">
<path d="M312 23.3275C312 14.3101 319.31 7 328.328 7H538.953C547.97 7 555.28 14.3101 555.28 23.3275V50.268C555.28 59.2855 547.97 66.5955 538.953 66.5955H328.328C319.31 66.5955 312 59.2854 312 50.268V23.3275Z"/>
</mask>
<path d="M312 23.3275C312 14.3101 319.31 7 328.328 7H538.953C547.97 7 555.28 14.3101 555.28 23.3275V50.268C555.28 59.2855 547.97 66.5955 538.953 66.5955H328.328C319.31 66.5955 312 59.2854 312 50.268V23.3275Z" fill="white"/>
<path d="M312 7H555.28H312ZM555.28 50.268C555.28 59.7363 547.605 67.4119 538.136 67.4119H329.144C319.676 67.4119 312 59.7363 312 50.268V50.268C312 58.8346 319.31 65.7792 328.328 65.7792H538.953C547.97 65.7792 555.28 58.8346 555.28 50.268V50.268ZM312 66.5955V7V66.5955ZM555.28 7V66.5955V7Z" fill="#151439" fill-opacity="0.4" mask="url(#path-1-inside-1_43_1430)"/>
</g>
<path d="M414.906 26.3756V43H412.39V28.892H412.293L408.315 31.4895V29.0868L412.463 26.3756H414.906ZM425.42 43.276C424.137 43.2706 423.041 42.9324 422.132 42.2613C421.223 41.5903 420.528 40.6135 420.046 39.3309C419.564 38.0484 419.323 36.5034 419.323 34.6959C419.323 32.8939 419.564 31.3543 420.046 30.0771C420.533 28.8 421.231 27.8259 422.14 27.1549C423.055 26.4838 424.148 26.1483 425.42 26.1483C426.691 26.1483 427.782 26.4865 428.691 27.163C429.6 27.834 430.295 28.8081 430.777 30.0852C431.264 31.357 431.508 32.8939 431.508 34.6959C431.508 36.5088 431.267 38.0565 430.785 39.3391C430.304 40.6162 429.608 41.593 428.699 42.2694C427.79 42.9405 426.697 43.276 425.42 43.276ZM425.42 41.1086C426.545 41.1086 427.425 40.5594 428.058 39.4608C428.696 38.3623 429.016 36.774 429.016 34.6959C429.016 33.316 428.87 32.1498 428.577 31.1973C428.29 30.2395 427.877 29.5143 427.335 29.0219C426.8 28.524 426.161 28.2751 425.42 28.2751C424.299 28.2751 423.42 28.827 422.781 29.931C422.143 31.035 421.821 32.6233 421.816 34.6959C421.816 36.0813 421.959 37.2529 422.246 38.2107C422.538 39.1632 422.952 39.8856 423.488 40.3781C424.023 40.8651 424.667 41.1086 425.42 41.1086ZM440.404 43.276C439.121 43.2706 438.025 42.9324 437.116 42.2613C436.207 41.5903 435.512 40.6135 435.03 39.3309C434.548 38.0484 434.307 36.5034 434.307 34.6959C434.307 32.8939 434.548 31.3543 435.03 30.0771C435.517 28.8 436.215 27.8259 437.124 27.1549C438.039 26.4838 439.132 26.1483 440.404 26.1483C441.675 26.1483 442.766 26.4865 443.675 27.163C444.584 27.834 445.279 28.8081 445.761 30.0852C446.248 31.357 446.492 32.8939 446.492 34.6959C446.492 36.5088 446.251 38.0565 445.769 39.3391C445.288 40.6162 444.592 41.593 443.683 42.2694C442.774 42.9405 441.681 43.276 440.404 43.276ZM440.404 41.1086C441.529 41.1086 442.409 40.5594 443.042 39.4608C443.68 38.3623 444 36.774 444 34.6959C444 33.316 443.854 32.1498 443.561 31.1973C443.274 30.2395 442.86 29.5143 442.319 29.0219C441.784 28.524 441.145 28.2751 440.404 28.2751C439.283 28.2751 438.404 28.827 437.765 29.931C437.127 31.035 436.805 32.6233 436.799 34.6959C436.799 36.0813 436.943 37.2529 437.23 38.2107C437.522 39.1632 437.936 39.8856 438.472 40.3781C439.007 40.8651 439.651 41.1086 440.404 41.1086ZM455.388 43.276C454.105 43.2706 453.009 42.9324 452.1 42.2613C451.191 41.5903 450.496 40.6135 450.014 39.3309C449.532 38.0484 449.291 36.5034 449.291 34.6959C449.291 32.8939 449.532 31.3543 450.014 30.0771C450.501 28.8 451.199 27.8259 452.108 27.1549C453.023 26.4838 454.116 26.1483 455.388 26.1483C456.659 26.1483 457.75 26.4865 458.659 27.163C459.568 27.834 460.263 28.8081 460.745 30.0852C461.232 31.357 461.476 32.8939 461.476 34.6959C461.476 36.5088 461.235 38.0565 460.753 39.3391C460.272 40.6162 459.576 41.593 458.667 42.2694C457.758 42.9405 456.665 43.276 455.388 43.276ZM455.388 41.1086C456.513 41.1086 457.393 40.5594 458.026 39.4608C458.664 38.3623 458.984 36.774 458.984 34.6959C458.984 33.316 458.837 32.1498 458.545 31.1973C458.258 30.2395 457.844 29.5143 457.303 29.0219C456.768 28.524 456.129 28.2751 455.388 28.2751C454.267 28.2751 453.388 28.827 452.749 29.931C452.111 31.035 451.789 32.6233 451.783 34.6959C451.783 36.0813 451.927 37.2529 452.214 38.2107C452.506 39.1632 452.92 39.8856 453.456 40.3781C453.991 40.8651 454.635 41.1086 455.388 41.1086ZM470.372 43.276C469.089 43.2706 467.993 42.9324 467.084 42.2613C466.175 41.5903 465.479 40.6135 464.998 39.3309C464.516 38.0484 464.275 36.5034 464.275 34.6959C464.275 32.8939 464.516 31.3543 464.998 30.0771C465.485 28.8 466.183 27.8259 467.092 27.1549C468.007 26.4838 469.1 26.1483 470.372 26.1483C471.643 26.1483 472.734 26.4865 473.643 27.163C474.552 27.834 475.247 28.8081 475.729 30.0852C476.216 31.357 476.46 32.8939 476.46 34.6959C476.46 36.5088 476.219 38.0565 475.737 39.3391C475.256 40.6162 474.56 41.593 473.651 42.2694C472.742 42.9405 471.649 43.276 470.372 43.276ZM470.372 41.1086C471.497 41.1086 472.377 40.5594 473.01 39.4608C473.648 38.3623 473.968 36.774 473.968 34.6959C473.968 33.316 473.821 32.1498 473.529 31.1973C473.242 30.2395 472.828 29.5143 472.287 29.0219C471.752 28.524 471.113 28.2751 470.372 28.2751C469.251 28.2751 468.372 28.827 467.733 29.931C467.095 31.035 466.773 32.6233 466.767 34.6959C466.767 36.0813 466.911 37.2529 467.198 38.2107C467.49 39.1632 467.904 39.8856 468.44 40.3781C468.975 40.8651 469.619 41.1086 470.372 41.1086Z" fill="#6496EB"/>
<path d="M396.613 27.6065V25.6057H380.607V27.6065H386.109C387.213 27.6097 388.277 28.0195 389.099 28.7576C389.92 29.4958 390.44 30.5105 390.561 31.608H380.607V33.6088H390.561C390.44 34.7063 389.92 35.721 389.099 36.4591C388.277 37.1973 387.213 37.6071 386.109 37.6103H380.607V39.9562L390.228 48.6145L391.566 47.1279L383.214 39.6111H386.109C387.746 39.6087 389.321 38.9896 390.522 37.8771C391.723 36.7646 392.46 35.2406 392.587 33.6088H396.613V31.608H392.587C392.472 30.1059 391.837 28.6908 390.791 27.6065H396.613Z" fill="#6496EB"/>
</g>
<path opacity="0.9" d="M0.858 33.756H4.95V47H7.458V33.756H11.528V31.71H0.858V33.756ZM25.618 40.928C25.618 37.122 22.89 34.68 19.436 34.68C15.982 34.68 13.254 37.122 13.254 40.928C13.254 44.734 15.872 47.198 19.326 47.198C22.802 47.198 25.618 44.734 25.618 40.928ZM15.806 40.928C15.806 38.178 17.5 36.858 19.392 36.858C21.262 36.858 23.044 38.178 23.044 40.928C23.044 43.678 21.196 45.02 19.326 45.02C17.434 45.02 15.806 43.678 15.806 40.928ZM28.4933 43.634C28.4933 46.098 29.8353 47 31.9913 47H33.9713V44.91H32.4313C31.3753 44.91 31.0233 44.536 31.0233 43.634V36.924H33.9713V34.878H31.0233V31.864H28.4933V34.878H27.0633V36.924H28.4933V43.634ZM35.4468 40.884C35.4468 44.624 37.9768 47.198 41.1228 47.198C43.1468 47.198 44.5988 46.23 45.3688 45.196V47H47.8988V34.878H45.3688V36.638C44.6208 35.648 43.2128 34.68 41.1668 34.68C37.9768 34.68 35.4468 37.144 35.4468 40.884ZM45.3688 40.928C45.3688 43.546 43.5868 45.02 41.6948 45.02C39.8248 45.02 38.0208 43.502 38.0208 40.884C38.0208 38.266 39.8248 36.858 41.6948 36.858C43.5868 36.858 45.3688 38.332 45.3688 40.928ZM51.193 47H53.701V30.72H51.193V47ZM73.0266 42.666C73.0266 37.078 64.9306 39.234 64.9306 35.78C64.9306 34.306 66.0526 33.602 67.5046 33.646C69.0886 33.69 69.9906 34.636 70.0786 35.67H72.8506C72.6306 33.052 70.5626 31.512 67.6366 31.512C64.5126 31.512 62.3786 33.184 62.3786 35.868C62.3786 41.5 70.4966 39.102 70.4966 42.798C70.4966 44.096 69.5066 45.042 67.7466 45.042C66.0086 45.042 65.1286 44.03 65.0186 42.776H62.3346C62.3346 45.482 64.6886 47.154 67.7466 47.154C71.1566 47.154 73.0266 44.954 73.0266 42.666ZM75.1499 40.884C75.1499 44.624 77.6799 47.198 80.8259 47.198C82.8499 47.198 84.3019 46.23 85.0719 45.196V47H87.6019V34.878H85.0719V36.638C84.3239 35.648 82.9159 34.68 80.8699 34.68C77.6799 34.68 75.1499 37.144 75.1499 40.884ZM85.0719 40.928C85.0719 43.546 83.2899 45.02 81.3979 45.02C79.5279 45.02 77.7239 43.502 77.7239 40.884C77.7239 38.266 79.5279 36.858 81.3979 36.858C83.2899 36.858 85.0719 38.332 85.0719 40.928ZM90.8961 47H93.4041V30.72H90.8961V47ZM95.8609 40.884C95.8609 44.624 98.3909 47.198 101.537 47.198C103.561 47.198 105.013 46.23 105.783 45.196V47H108.313V34.878H105.783V36.638C105.035 35.648 103.627 34.68 101.581 34.68C98.3909 34.68 95.8609 37.144 95.8609 40.884ZM105.783 40.928C105.783 43.546 104.001 45.02 102.109 45.02C100.239 45.02 98.4349 43.502 98.4349 40.884C98.4349 38.266 100.239 36.858 102.109 36.858C104.001 36.858 105.783 38.332 105.783 40.928ZM114.115 40.62C114.115 38.046 115.259 37.276 117.107 37.276H117.745V34.68C116.029 34.68 114.819 35.428 114.115 36.638V34.878H111.607V47H114.115V40.62ZM124.824 44.118L121.414 34.878H118.62L123.394 46.802L120.93 52.698H123.526L130.962 34.878H128.366L124.824 44.118Z" fill="#333333"/>
<circle cx="243" cy="31" r="3" fill="#707070"/>
<circle cx="243" cy="46" r="3" fill="#707070"/>
<g filter="url(#filter1_d_43_1430)">
<g opacity="0.7">
<mask id="path-8-inside-2_43_1430" fill="white">
<path d="M312 103.328C312 94.3101 319.31 87 328.328 87H538.953C547.97 87 555.28 94.3101 555.28 103.328V130.268C555.28 139.285 547.97 146.596 538.953 146.596H328.328C319.31 146.596 312 139.285 312 130.268V103.328Z"/>
</mask>
<path d="M312 103.328C312 94.3101 319.31 87 328.328 87H538.953C547.97 87 555.28 94.3101 555.28 103.328V130.268C555.28 139.285 547.97 146.596 538.953 146.596H328.328C319.31 146.596 312 139.285 312 130.268V103.328Z" fill="white"/>
<path d="M312 87H555.28H312ZM555.28 130.268C555.28 139.736 547.605 147.412 538.136 147.412H329.144C319.676 147.412 312 139.736 312 130.268V130.268C312 138.835 319.31 145.779 328.328 145.779H538.953C547.97 145.779 555.28 138.835 555.28 130.268V130.268ZM312 146.596V87V146.596ZM555.28 87V146.596V87Z" fill="#151439" fill-opacity="0.4" mask="url(#path-8-inside-2_43_1430)"/>
</g>
<path opacity="0.5" d="M422.906 108.376V125H420.39V110.892H420.293L416.315 113.49V111.087L420.463 108.376H422.906ZM433.42 125.276C432.137 125.271 431.041 124.932 430.132 124.261C429.223 123.59 428.528 122.613 428.046 121.331C427.564 120.048 427.323 118.503 427.323 116.696C427.323 114.894 427.564 113.354 428.046 112.077C428.533 110.8 429.231 109.826 430.14 109.155C431.055 108.484 432.148 108.148 433.42 108.148C434.691 108.148 435.782 108.487 436.691 109.163C437.6 109.834 438.295 110.808 438.777 112.085C439.264 113.357 439.508 114.894 439.508 116.696C439.508 118.509 439.267 120.057 438.785 121.339C438.304 122.616 437.608 123.593 436.699 124.269C435.79 124.94 434.697 125.276 433.42 125.276ZM433.42 123.109C434.545 123.109 435.425 122.559 436.058 121.461C436.696 120.362 437.016 118.774 437.016 116.696C437.016 115.316 436.87 114.15 436.577 113.197C436.29 112.239 435.877 111.514 435.335 111.022C434.8 110.524 434.161 110.275 433.42 110.275C432.299 110.275 431.42 110.827 430.781 111.931C430.143 113.035 429.821 114.623 429.816 116.696C429.816 118.081 429.959 119.253 430.246 120.211C430.538 121.163 430.952 121.886 431.488 122.378C432.023 122.865 432.667 123.109 433.42 123.109ZM448.404 125.276C447.121 125.271 446.025 124.932 445.116 124.261C444.207 123.59 443.512 122.613 443.03 121.331C442.548 120.048 442.307 118.503 442.307 116.696C442.307 114.894 442.548 113.354 443.03 112.077C443.517 110.8 444.215 109.826 445.124 109.155C446.039 108.484 447.132 108.148 448.404 108.148C449.675 108.148 450.766 108.487 451.675 109.163C452.584 109.834 453.279 110.808 453.761 112.085C454.248 113.357 454.492 114.894 454.492 116.696C454.492 118.509 454.251 120.057 453.769 121.339C453.288 122.616 452.592 123.593 451.683 124.269C450.774 124.94 449.681 125.276 448.404 125.276ZM448.404 123.109C449.529 123.109 450.409 122.559 451.042 121.461C451.68 120.362 452 118.774 452 116.696C452 115.316 451.854 114.15 451.561 113.197C451.274 112.239 450.86 111.514 450.319 111.022C449.784 110.524 449.145 110.275 448.404 110.275C447.283 110.275 446.404 110.827 445.765 111.931C445.127 113.035 444.805 114.623 444.799 116.696C444.799 118.081 444.943 119.253 445.23 120.211C445.522 121.163 445.936 121.886 446.472 122.378C447.007 122.865 447.651 123.109 448.404 123.109ZM463.388 125.276C462.105 125.271 461.009 124.932 460.1 124.261C459.191 123.59 458.496 122.613 458.014 121.331C457.532 120.048 457.291 118.503 457.291 116.696C457.291 114.894 457.532 113.354 458.014 112.077C458.501 110.8 459.199 109.826 460.108 109.155C461.023 108.484 462.116 108.148 463.388 108.148C464.659 108.148 465.75 108.487 466.659 109.163C467.568 109.834 468.263 110.808 468.745 112.085C469.232 113.357 469.476 114.894 469.476 116.696C469.476 118.509 469.235 120.057 468.753 121.339C468.272 122.616 467.576 123.593 466.667 124.269C465.758 124.94 464.665 125.276 463.388 125.276ZM463.388 123.109C464.513 123.109 465.393 122.559 466.026 121.461C466.664 120.362 466.984 118.774 466.984 116.696C466.984 115.316 466.837 114.15 466.545 113.197C466.258 112.239 465.844 111.514 465.303 111.022C464.768 110.524 464.129 110.275 463.388 110.275C462.267 110.275 461.388 110.827 460.749 111.931C460.111 113.035 459.789 114.623 459.783 116.696C459.783 118.081 459.927 119.253 460.214 120.211C460.506 121.163 460.92 121.886 461.456 122.378C461.991 122.865 462.635 123.109 463.388 123.109Z" fill="black"/>
<path d="M396.613 107.606V105.605H380.607V107.606H386.109C387.213 107.609 388.277 108.019 389.099 108.757C389.92 109.496 390.44 110.51 390.561 111.608H380.607V113.609H390.561C390.44 114.706 389.92 115.721 389.099 116.459C388.277 117.197 387.213 117.607 386.109 117.61H380.607V119.956L390.228 128.614L391.566 127.128L383.214 119.611H386.109C387.746 119.608 389.321 118.989 390.522 117.877C391.723 116.764 392.46 115.24 392.587 113.609H396.613V111.608H392.587C392.472 110.106 391.837 108.691 390.791 107.606H396.613Z" fill="#808080"/>
</g>
<path opacity="0.9" d="M9.768 115.286C9.768 116.804 8.888 117.882 6.93 117.882H4.158V112.756H6.93C8.888 112.756 9.768 113.746 9.768 115.286ZM1.65 110.71V126H4.158V119.884H6.072L9.592 126H12.584L8.8 119.664C11.374 119.026 12.342 117.09 12.342 115.286C12.342 112.8 10.56 110.71 6.93 110.71H1.65ZM20.6544 115.792C22.5244 115.792 23.9984 116.98 24.0424 118.85H17.3324C17.5964 116.936 18.9604 115.792 20.6544 115.792ZM26.3304 122.392H23.6244C23.1624 123.338 22.3044 124.086 20.7644 124.086C18.9164 124.086 17.4864 122.876 17.3104 120.874H26.5724C26.6384 120.456 26.6604 120.06 26.6604 119.642C26.6604 116.078 24.2184 113.68 20.7644 113.68C17.1784 113.68 14.7144 116.122 14.7144 119.928C14.7144 123.734 17.2884 126.198 20.7644 126.198C23.7344 126.198 25.6484 124.504 26.3304 122.392ZM37.7305 126H40.2165V118.85C40.2165 115.462 38.0825 113.68 35.2445 113.68C33.7925 113.68 32.4505 114.274 31.6365 115.264V113.878H29.1285V126H31.6365V119.224C31.6365 117.002 32.8465 115.858 34.6945 115.858C36.5205 115.858 37.7305 117.002 37.7305 119.224V126ZM43.8116 122.634C43.8116 125.098 45.1536 126 47.3096 126H49.2896V123.91H47.7496C46.6936 123.91 46.3416 123.536 46.3416 122.634V115.924H49.2896V113.878H46.3416V110.864H43.8116V113.878H42.3816V115.924H43.8116V122.634Z" fill="#333333"/>
<circle cx="243" cy="111" r="3" fill="#707070"/>
<circle cx="243" cy="126" r="3" fill="#707070"/>
<g filter="url(#filter2_d_43_1430)">
<g opacity="0.7">
<mask id="path-15-inside-3_43_1430" fill="white">
<path d="M312 183.328C312 174.31 319.31 167 328.328 167H538.953C547.97 167 555.28 174.31 555.28 183.328V210.268C555.28 219.285 547.97 226.596 538.953 226.596H328.328C319.31 226.596 312 219.285 312 210.268V183.328Z"/>
</mask>
<path d="M312 183.328C312 174.31 319.31 167 328.328 167H538.953C547.97 167 555.28 174.31 555.28 183.328V210.268C555.28 219.285 547.97 226.596 538.953 226.596H328.328C319.31 226.596 312 219.285 312 210.268V183.328Z" fill="white"/>
<path d="M312 167H555.28H312ZM555.28 210.268C555.28 219.736 547.605 227.412 538.136 227.412H329.144C319.676 227.412 312 219.736 312 210.268V210.268C312 218.835 319.31 225.779 328.328 225.779H538.953C547.97 225.779 555.28 218.835 555.28 210.268V210.268ZM312 226.596V167V226.596ZM555.28 167V226.596V167Z" fill="#151439" fill-opacity="0.4" mask="url(#path-15-inside-3_43_1430)"/>
</g>
<path d="M396.613 187.606V185.605H380.607V187.606H386.109C387.213 187.609 388.277 188.019 389.099 188.757C389.92 189.496 390.44 190.51 390.561 191.608H380.607V193.609H390.561C390.44 194.706 389.92 195.721 389.099 196.459C388.277 197.197 387.213 197.607 386.109 197.61H380.607V199.956L390.228 208.614L391.566 207.128L383.214 199.611H386.109C387.746 199.608 389.321 198.989 390.522 197.877C391.723 196.764 392.46 195.24 392.587 193.609H396.613V191.608H392.587C392.472 190.106 391.837 188.691 390.791 187.606H396.613Z" fill="#808080"/>
<path opacity="0.5" d="M412.599 203V201.182L418.224 195.353C418.825 194.72 419.32 194.166 419.71 193.689C420.105 193.208 420.4 192.75 420.595 192.318C420.79 191.885 420.887 191.425 420.887 190.938C420.887 190.386 420.757 189.909 420.497 189.509C420.238 189.103 419.883 188.792 419.434 188.575C418.985 188.354 418.479 188.243 417.916 188.243C417.321 188.243 416.801 188.364 416.357 188.608C415.914 188.851 415.573 189.195 415.335 189.639C415.097 190.083 414.978 190.602 414.978 191.197H412.583C412.583 190.185 412.816 189.301 413.281 188.543C413.746 187.785 414.385 187.198 415.197 186.781C416.008 186.359 416.931 186.148 417.965 186.148C419.009 186.148 419.929 186.357 420.725 186.773C421.526 187.185 422.151 187.747 422.6 188.462C423.049 189.171 423.273 189.972 423.273 190.865C423.273 191.481 423.157 192.085 422.924 192.675C422.697 193.265 422.299 193.922 421.731 194.647C421.163 195.367 420.373 196.241 419.361 197.269L416.057 200.727V200.849H423.541V203H412.599ZM432.634 203.276C431.352 203.271 430.256 202.932 429.347 202.261C428.437 201.59 427.742 200.613 427.26 199.331C426.779 198.048 426.538 196.503 426.538 194.696C426.538 192.894 426.779 191.354 427.26 190.077C427.747 188.8 428.446 187.826 429.355 187.155C430.269 186.484 431.362 186.148 432.634 186.148C433.906 186.148 434.996 186.487 435.905 187.163C436.815 187.834 437.51 188.808 437.992 190.085C438.479 191.357 438.722 192.894 438.722 194.696C438.722 196.509 438.481 198.057 438 199.339C437.518 200.616 436.823 201.593 435.914 202.269C435.004 202.94 433.911 203.276 432.634 203.276ZM432.634 201.109C433.76 201.109 434.639 200.559 435.272 199.461C435.911 198.362 436.23 196.774 436.23 194.696C436.23 193.316 436.084 192.15 435.792 191.197C435.505 190.239 435.091 189.514 434.55 189.022C434.014 188.524 433.376 188.275 432.634 188.275C431.514 188.275 430.635 188.827 429.996 189.931C429.357 191.035 429.035 192.623 429.03 194.696C429.03 196.081 429.173 197.253 429.46 198.211C429.752 199.163 430.166 199.886 430.702 200.378C431.238 200.865 431.882 201.109 432.634 201.109ZM447.618 203.276C446.336 203.271 445.24 202.932 444.331 202.261C443.421 201.59 442.726 200.613 442.244 199.331C441.763 198.048 441.522 196.503 441.522 194.696C441.522 192.894 441.763 191.354 442.244 190.077C442.731 188.8 443.43 187.826 444.339 187.155C445.253 186.484 446.346 186.148 447.618 186.148C448.89 186.148 449.98 186.487 450.889 187.163C451.799 187.834 452.494 188.808 452.976 190.085C453.463 191.357 453.706 192.894 453.706 194.696C453.706 196.509 453.465 198.057 452.984 199.339C452.502 200.616 451.807 201.593 450.898 202.269C449.988 202.94 448.895 203.276 447.618 203.276ZM447.618 201.109C448.744 201.109 449.623 200.559 450.256 199.461C450.895 198.362 451.214 196.774 451.214 194.696C451.214 193.316 451.068 192.15 450.776 191.197C450.489 190.239 450.075 189.514 449.534 189.022C448.998 188.524 448.359 188.275 447.618 188.275C446.498 188.275 445.619 188.827 444.98 189.931C444.341 191.035 444.019 192.623 444.014 194.696C444.014 196.081 444.157 197.253 444.444 198.211C444.736 199.163 445.15 199.886 445.686 200.378C446.222 200.865 446.866 201.109 447.618 201.109ZM462.602 203.276C461.32 203.271 460.224 202.932 459.315 202.261C458.405 201.59 457.71 200.613 457.228 199.331C456.747 198.048 456.506 196.503 456.506 194.696C456.506 192.894 456.747 191.354 457.228 190.077C457.715 188.8 458.413 187.826 459.323 187.155C460.237 186.484 461.33 186.148 462.602 186.148C463.874 186.148 464.964 186.487 465.873 187.163C466.783 187.834 467.478 188.808 467.96 190.085C468.447 191.357 468.69 192.894 468.69 194.696C468.69 196.509 468.449 198.057 467.968 199.339C467.486 200.616 466.791 201.593 465.881 202.269C464.972 202.94 463.879 203.276 462.602 203.276ZM462.602 201.109C463.728 201.109 464.607 200.559 465.24 199.461C465.879 198.362 466.198 196.774 466.198 194.696C466.198 193.316 466.052 192.15 465.76 191.197C465.473 190.239 465.059 189.514 464.518 189.022C463.982 188.524 463.343 188.275 462.602 188.275C461.482 188.275 460.602 188.827 459.964 189.931C459.325 191.035 459.003 192.623 458.998 194.696C458.998 196.081 459.141 197.253 459.428 198.211C459.72 199.163 460.134 199.886 460.67 200.378C461.206 200.865 461.85 201.109 462.602 201.109Z" fill="black"/>
</g>
<path opacity="0.9" d="M4.158 197.75V192.756H6.93C8.888 192.756 9.768 193.68 9.768 195.264C9.768 196.804 8.888 197.75 6.93 197.75H4.158ZM12.342 195.264C12.342 192.778 10.56 190.71 6.93 190.71H1.65V206H4.158V199.796H6.93C10.912 199.796 12.342 197.442 12.342 195.264ZM19.838 195.792C21.708 195.792 23.182 196.98 23.226 198.85H16.516C16.78 196.936 18.144 195.792 19.838 195.792ZM25.514 202.392H22.808C22.346 203.338 21.488 204.086 19.948 204.086C18.1 204.086 16.67 202.876 16.494 200.874H25.756C25.822 200.456 25.844 200.06 25.844 199.642C25.844 196.078 23.402 193.68 19.948 193.68C16.362 193.68 13.898 196.122 13.898 199.928C13.898 203.734 16.472 206.198 19.948 206.198C22.918 206.198 24.832 204.504 25.514 202.392ZM28.7081 202.634C28.7081 205.098 30.0501 206 32.2061 206H34.1861V203.91H32.6461C31.5901 203.91 31.2381 203.536 31.2381 202.634V195.924H34.1861V193.878H31.2381V190.864H28.7081V193.878H27.2781V195.924H28.7081V202.634ZM39.0057 199.62C39.0057 197.046 40.1497 196.276 41.9977 196.276H42.6357V193.68C40.9197 193.68 39.7097 194.428 39.0057 195.638V193.878H36.4977V206H39.0057V199.62ZM56.491 199.928C56.491 196.122 53.763 193.68 50.309 193.68C46.855 193.68 44.127 196.122 44.127 199.928C44.127 203.734 46.745 206.198 50.199 206.198C53.675 206.198 56.491 203.734 56.491 199.928ZM46.679 199.928C46.679 197.178 48.373 195.858 50.265 195.858C52.135 195.858 53.917 197.178 53.917 199.928C53.917 202.678 52.069 204.02 50.199 204.02C48.307 204.02 46.679 202.678 46.679 199.928ZM58.9703 206H61.4783V189.72H58.9703V206Z" fill="#333333"/>
<circle cx="243" cy="191" r="3" fill="#707070"/>
<circle cx="243" cy="206" r="3" fill="#707070"/>
<g filter="url(#filter3_d_43_1430)">
<g opacity="0.7">
<mask id="path-22-inside-4_43_1430" fill="white">
<path d="M312 281.328C312 272.31 319.31 265 328.328 265H538.953C547.97 265 555.28 272.31 555.28 281.328V308.268C555.28 317.285 547.97 324.596 538.953 324.596H328.328C319.31 324.596 312 317.285 312 308.268V281.328Z"/>
</mask>
<path d="M312 281.328C312 272.31 319.31 265 328.328 265H538.953C547.97 265 555.28 272.31 555.28 281.328V308.268C555.28 317.285 547.97 324.596 538.953 324.596H328.328C319.31 324.596 312 317.285 312 308.268V281.328Z" fill="white"/>
<path d="M312 265H555.28H312ZM555.28 308.268C555.28 317.736 547.605 325.412 538.136 325.412H329.144C319.676 325.412 312 317.736 312 308.268V308.268C312 316.835 319.31 323.779 328.328 323.779H538.953C547.97 323.779 555.28 316.835 555.28 308.268V308.268ZM312 324.596V265V324.596ZM555.28 265V324.596V265Z" fill="#151439" fill-opacity="0.4" mask="url(#path-22-inside-4_43_1430)"/>
</g>
<path d="M396.613 285.606V283.605H380.607V285.606H386.109C387.213 285.609 388.277 286.019 389.099 286.757C389.92 287.496 390.44 288.51 390.561 289.608H380.607V291.609H390.561C390.44 292.706 389.92 293.721 389.099 294.459C388.277 295.197 387.213 295.607 386.109 295.61H380.607V297.956L390.228 306.614L391.566 305.128L383.214 297.611H386.109C387.746 297.608 389.321 296.989 390.522 295.877C391.723 294.764 392.46 293.24 392.587 291.609H396.613V289.608H392.587C392.472 288.106 391.837 286.691 390.791 285.606H396.613Z" fill="#6496EB"/>
<path d="M416.159 301L423.416 286.648V286.527H415.023V284.376H426.014V286.6L418.781 301H416.159ZM434.496 301.276C433.213 301.271 432.117 300.932 431.208 300.261C430.299 299.59 429.604 298.613 429.122 297.331C428.64 296.048 428.4 294.503 428.4 292.696C428.4 290.894 428.64 289.354 429.122 288.077C429.609 286.8 430.307 285.826 431.216 285.155C432.131 284.484 433.224 284.148 434.496 284.148C435.767 284.148 436.858 284.487 437.767 285.163C438.676 285.834 439.372 286.808 439.853 288.085C440.34 289.357 440.584 290.894 440.584 292.696C440.584 294.509 440.343 296.057 439.861 297.339C439.38 298.616 438.684 299.593 437.775 300.269C436.866 300.94 435.773 301.276 434.496 301.276ZM434.496 299.109C435.621 299.109 436.501 298.559 437.134 297.461C437.772 296.362 438.092 294.774 438.092 292.696C438.092 291.316 437.946 290.15 437.653 289.197C437.367 288.239 436.953 287.514 436.411 287.022C435.876 286.524 435.237 286.275 434.496 286.275C433.375 286.275 432.496 286.827 431.858 287.931C431.219 289.035 430.897 290.623 430.892 292.696C430.892 294.081 431.035 295.253 431.322 296.211C431.614 297.163 432.028 297.886 432.564 298.378C433.099 298.865 433.743 299.109 434.496 299.109ZM449.48 301.276C448.197 301.271 447.101 300.932 446.192 300.261C445.283 299.59 444.588 298.613 444.106 297.331C443.624 296.048 443.383 294.503 443.383 292.696C443.383 290.894 443.624 289.354 444.106 288.077C444.593 286.8 445.291 285.826 446.2 285.155C447.115 284.484 448.208 284.148 449.48 284.148C450.751 284.148 451.842 284.487 452.751 285.163C453.66 285.834 454.355 286.808 454.837 288.085C455.324 289.357 455.568 290.894 455.568 292.696C455.568 294.509 455.327 296.057 454.845 297.339C454.364 298.616 453.668 299.593 452.759 300.269C451.85 300.94 450.757 301.276 449.48 301.276ZM449.48 299.109C450.605 299.109 451.485 298.559 452.118 297.461C452.756 296.362 453.076 294.774 453.076 292.696C453.076 291.316 452.93 290.15 452.637 289.197C452.35 288.239 451.936 287.514 451.395 287.022C450.86 286.524 450.221 286.275 449.48 286.275C448.359 286.275 447.48 286.827 446.841 287.931C446.203 289.035 445.881 290.623 445.876 292.696C445.876 294.081 446.019 295.253 446.306 296.211C446.598 297.163 447.012 297.886 447.548 298.378C448.083 298.865 448.727 299.109 449.48 299.109ZM464.464 301.276C463.181 301.271 462.085 300.932 461.176 300.261C460.267 299.59 459.572 298.613 459.09 297.331C458.608 296.048 458.367 294.503 458.367 292.696C458.367 290.894 458.608 289.354 459.09 288.077C459.577 286.8 460.275 285.826 461.184 285.155C462.099 284.484 463.192 284.148 464.464 284.148C465.735 284.148 466.826 284.487 467.735 285.163C468.644 285.834 469.339 286.808 469.821 288.085C470.308 289.357 470.552 290.894 470.552 292.696C470.552 294.509 470.311 296.057 469.829 297.339C469.348 298.616 468.652 299.593 467.743 300.269C466.834 300.94 465.741 301.276 464.464 301.276ZM464.464 299.109C465.589 299.109 466.469 298.559 467.102 297.461C467.74 296.362 468.06 294.774 468.06 292.696C468.06 291.316 467.913 290.15 467.621 289.197C467.334 288.239 466.92 287.514 466.379 287.022C465.844 286.524 465.205 286.275 464.464 286.275C463.343 286.275 462.464 286.827 461.825 287.931C461.187 289.035 460.865 290.623 460.859 292.696C460.859 294.081 461.003 295.253 461.29 296.211C461.582 297.163 461.996 297.886 462.532 298.378C463.067 298.865 463.711 299.109 464.464 299.109Z" fill="#6496EB"/>
</g>
<path opacity="0.9" d="M9.768 274.286C9.768 275.804 8.888 276.882 6.93 276.882H4.158V271.756H6.93C8.888 271.756 9.768 272.746 9.768 274.286ZM1.65 269.71V285H4.158V278.884H6.072L9.592 285H12.584L8.8 278.664C11.374 278.026 12.342 276.09 12.342 274.286C12.342 271.8 10.56 269.71 6.93 269.71H1.65ZM20.6544 274.792C22.5244 274.792 23.9984 275.98 24.0424 277.85H17.3324C17.5964 275.936 18.9604 274.792 20.6544 274.792ZM26.3304 281.392H23.6244C23.1624 282.338 22.3044 283.086 20.7644 283.086C18.9164 283.086 17.4864 281.876 17.3104 279.874H26.5724C26.6384 279.456 26.6604 279.06 26.6604 278.642C26.6604 275.078 24.2184 272.68 20.7644 272.68C17.1784 272.68 14.7144 275.122 14.7144 278.928C14.7144 282.734 17.2884 285.198 20.7644 285.198C23.7344 285.198 25.6484 283.504 26.3304 281.392ZM46.3105 285H48.7965V277.85C48.7965 274.462 46.6405 272.68 43.8025 272.68C42.0425 272.68 40.3265 273.604 39.5785 275.078C38.7425 273.494 37.1365 272.68 35.2225 272.68C33.7705 272.68 32.4505 273.274 31.6365 274.264V272.878H29.1285V285H31.6365V278.224C31.6365 276.002 32.8465 274.858 34.6945 274.858C36.5205 274.858 37.7305 276.002 37.7305 278.224V285H40.2165V278.224C40.2165 276.002 41.4265 274.858 43.2745 274.858C45.1005 274.858 46.3105 276.002 46.3105 278.224V285ZM51.1519 278.884C51.1519 282.624 53.6819 285.198 56.8279 285.198C58.8519 285.198 60.3039 284.23 61.0739 283.196V285H63.6039V272.878H61.0739V274.638C60.3259 273.648 58.9179 272.68 56.8719 272.68C53.6819 272.68 51.1519 275.144 51.1519 278.884ZM61.0739 278.928C61.0739 281.546 59.2919 283.02 57.3999 283.02C55.5299 283.02 53.7259 281.502 53.7259 278.884C53.7259 276.266 55.5299 274.858 57.3999 274.858C59.2919 274.858 61.0739 276.332 61.0739 278.928ZM66.898 285H69.406V272.878H66.898V285ZM68.174 271.272C69.054 271.272 69.758 270.568 69.758 269.666C69.758 268.764 69.054 268.06 68.174 268.06C67.272 268.06 66.568 268.764 66.568 269.666C66.568 270.568 67.272 271.272 68.174 271.272ZM81.3008 285H83.7868V277.85C83.7868 274.462 81.6528 272.68 78.8148 272.68C77.3628 272.68 76.0208 273.274 75.2068 274.264V272.878H72.6988V285H75.2068V278.224C75.2068 276.002 76.4168 274.858 78.2648 274.858C80.0908 274.858 81.3008 276.002 81.3008 278.224V285ZM95.5879 285H98.0739V277.85C98.0739 274.462 95.9399 272.68 93.1019 272.68C91.6499 272.68 90.3079 273.274 89.4939 274.264V272.878H86.9859V285H89.4939V278.224C89.4939 276.002 90.7039 274.858 92.5519 274.858C94.3779 274.858 95.5879 276.002 95.5879 278.224V285ZM101.273 285H103.781V272.878H101.273V285ZM102.549 271.272C103.429 271.272 104.133 270.568 104.133 269.666C104.133 268.764 103.429 268.06 102.549 268.06C101.647 268.06 100.943 268.764 100.943 269.666C100.943 270.568 101.647 271.272 102.549 271.272ZM115.676 285H118.162V277.85C118.162 274.462 116.028 272.68 113.19 272.68C111.738 272.68 110.396 273.274 109.582 274.264V272.878H107.074V285H109.582V278.224C109.582 276.002 110.792 274.858 112.64 274.858C114.466 274.858 115.676 276.002 115.676 278.224V285ZM120.525 278.884C120.525 282.624 123.055 285.198 126.245 285.198C128.225 285.198 129.677 284.208 130.447 283.174V285.198C130.447 287.618 128.995 288.806 127.059 288.806C125.321 288.806 123.979 287.948 123.605 286.694H121.119C121.427 289.378 123.825 290.984 127.059 290.984C130.843 290.984 132.977 288.498 132.977 285.198V272.878H130.447V274.638C129.699 273.604 128.225 272.68 126.245 272.68C123.055 272.68 120.525 275.144 120.525 278.884ZM130.447 278.928C130.447 281.546 128.665 283.02 126.773 283.02C124.903 283.02 123.099 281.502 123.099 278.884C123.099 276.266 124.903 274.858 126.773 274.858C128.665 274.858 130.447 276.332 130.447 278.928ZM11.968 318H14.608L9.13 302.688H6.226L0.748 318H3.366L4.466 314.876H10.868L11.968 318ZM10.164 312.83H5.17L7.678 305.724L10.164 312.83ZM34.1718 318H36.6578V310.85C36.6578 307.462 34.5018 305.68 31.6638 305.68C29.9038 305.68 28.1878 306.604 27.4398 308.078C26.6038 306.494 24.9978 305.68 23.0838 305.68C21.6318 305.68 20.3118 306.274 19.4978 307.264V305.878H16.9898V318H19.4978V311.224C19.4978 309.002 20.7078 307.858 22.5558 307.858C24.3818 307.858 25.5918 309.002 25.5918 311.224V318H28.0778V311.224C28.0778 309.002 29.2878 307.858 31.1358 307.858C32.9618 307.858 34.1718 309.002 34.1718 311.224V318ZM51.3992 311.928C51.3992 308.122 48.6712 305.68 45.2172 305.68C41.7632 305.68 39.0352 308.122 39.0352 311.928C39.0352 315.734 41.6532 318.198 45.1072 318.198C48.5832 318.198 51.3992 315.734 51.3992 311.928ZM41.5872 311.928C41.5872 309.178 43.2812 307.858 45.1732 307.858C47.0432 307.858 48.8252 309.178 48.8252 311.928C48.8252 314.678 46.9772 316.02 45.1072 316.02C43.2152 316.02 41.5872 314.678 41.5872 311.928ZM64.8565 305.878H62.3485V312.632C62.3485 314.854 61.1385 315.998 59.2905 315.998C57.4645 315.998 56.2545 314.854 56.2545 312.632V305.878H53.7685V313.006C53.7685 316.394 55.9245 318.176 58.7625 318.176C60.1925 318.176 61.5565 317.582 62.3485 316.548V318H64.8565V305.878ZM76.7676 318H79.2536V310.85C79.2536 307.462 77.1196 305.68 74.2816 305.68C72.8296 305.68 71.4876 306.274 70.6736 307.264V305.878H68.1656V318H70.6736V311.224C70.6736 309.002 71.8836 307.858 73.7316 307.858C75.5576 307.858 76.7676 309.002 76.7676 311.224V318ZM82.8487 314.634C82.8487 317.098 84.1907 318 86.3467 318H88.3267V315.91H86.7867C85.7307 315.91 85.3787 315.536 85.3787 314.634V307.924H88.3267V305.878H85.3787V302.864H82.8487V305.878H81.4187V307.924H82.8487V314.634Z" fill="#333333"/>
<circle cx="243" cy="289" r="3" fill="#707070"/>
<circle cx="243" cy="304" r="3" fill="#707070"/>
<defs>
<filter id="filter0_d_43_1430" x="306.285" y="0.468983" width="254.71" height="71.0247" filterUnits="userSpaceOnUse" color-interpolation-filters="sRGB">
<feFlood flood-opacity="0" result="BackgroundImageFix"/>
<feColorMatrix in="SourceAlpha" type="matrix" values="0 0 0 0 0 0 0 0 0 0 0 0 0 0 0 0 0 0 127 0" result="hardAlpha"/>
<feOffset dy="-0.816377"/>
<feGaussianBlur stdDeviation="2.85732"/>
<feComposite in2="hardAlpha" operator="out"/>
<feColorMatrix type="matrix" values="0 0 0 0 0 0 0 0 0 0 0 0 0 0 0 0 0 0 0.25 0"/>
<feBlend mode="normal" in2="BackgroundImageFix" result="effect1_dropShadow_43_1430"/>
<feBlend mode="normal" in="SourceGraphic" in2="effect1_dropShadow_43_1430" result="shape"/>
</filter>
<filter id="filter1_d_43_1430" x="306.285" y="80.469" width="254.71" height="71.0247" filterUnits="userSpaceOnUse" color-interpolation-filters="sRGB">
<feFlood flood-opacity="0" result="BackgroundImageFix"/>
<feColorMatrix in="SourceAlpha" type="matrix" values="0 0 0 0 0 0 0 0 0 0 0 0 0 0 0 0 0 0 127 0" result="hardAlpha"/>
<feOffset dy="-0.816377"/>
<feGaussianBlur stdDeviation="2.85732"/>
<feComposite in2="hardAlpha" operator="out"/>
<feColorMatrix type="matrix" values="0 0 0 0 0 0 0 0 0 0 0 0 0 0 0 0 0 0 0.25 0"/>
<feBlend mode="normal" in2="BackgroundImageFix" result="effect1_dropShadow_43_1430"/>
<feBlend mode="normal" in="SourceGraphic" in2="effect1_dropShadow_43_1430" result="shape"/>
</filter>
<filter id="filter2_d_43_1430" x="306.285" y="160.469" width="254.71" height="71.0247" filterUnits="userSpaceOnUse" color-interpolation-filters="sRGB">
<feFlood flood-opacity="0" result="BackgroundImageFix"/>
<feColorMatrix in="SourceAlpha" type="matrix" values="0 0 0 0 0 0 0 0 0 0 0 0 0 0 0 0 0 0 127 0" result="hardAlpha"/>
<feOffset dy="-0.816377"/>
<feGaussianBlur stdDeviation="2.85732"/>
<feComposite in2="hardAlpha" operator="out"/>
<feColorMatrix type="matrix" values="0 0 0 0 0 0 0 0 0 0 0 0 0 0 0 0 0 0 0.25 0"/>
<feBlend mode="normal" in2="BackgroundImageFix" result="effect1_dropShadow_43_1430"/>
<feBlend mode="normal" in="SourceGraphic" in2="effect1_dropShadow_43_1430" result="shape"/>
</filter>
<filter id="filter3_d_43_1430" x="306.285" y="258.469" width="254.71" height="71.0247" filterUnits="userSpaceOnUse" color-interpolation-filters="sRGB">
<feFlood flood-opacity="0" result="BackgroundImageFix"/>
<feColorMatrix in="SourceAlpha" type="matrix" values="0 0 0 0 0 0 0 0 0 0 0 0 0 0 0 0 0 0 127 0" result="hardAlpha"/>
<feOffset dy="-0.816377"/>
<feGaussianBlur stdDeviation="2.85732"/>
<feComposite in2="hardAlpha" operator="out"/>
<feColorMatrix type="matrix" values="0 0 0 0 0 0 0 0 0 0 0 0 0 0 0 0 0 0 0.25 0"/>
<feBlend mode="normal" in2="BackgroundImageFix" result="effect1_dropShadow_43_1430"/>
<feBlend mode="normal" in="SourceGraphic" in2="effect1_dropShadow_43_1430" result="shape"/>
</filter>
</defs>
</svg>
