<svg width="1440" height="240" viewBox="0 0 1440 240" fill="none" xmlns="http://www.w3.org/2000/svg">
<g filter="url(#filter0_d_43_1545)">
<path d="M1056.4 185.064C1055.3 185.064 1054.33 184.824 1053.5 184.344C1052.67 183.853 1052.02 183.181 1051.55 182.328C1051.09 181.475 1050.86 180.499 1050.86 179.4C1050.86 178.291 1051.09 177.309 1051.55 176.456C1052.02 175.603 1052.67 174.936 1053.5 174.456C1054.33 173.976 1055.3 173.736 1056.4 173.736C1057.5 173.736 1058.46 173.976 1059.29 174.456C1060.13 174.936 1060.77 175.603 1061.23 176.456C1061.7 177.309 1061.93 178.291 1061.93 179.4C1061.93 180.499 1061.7 181.475 1061.23 182.328C1060.77 183.181 1060.13 183.853 1059.29 184.344C1058.46 184.824 1057.5 185.064 1056.4 185.064ZM1056.4 184.472C1057.4 184.472 1058.27 184.259 1059.01 183.832C1059.74 183.405 1060.31 182.808 1060.7 182.04C1061.11 181.272 1061.31 180.392 1061.31 179.4C1061.31 178.387 1061.11 177.501 1060.7 176.744C1060.31 175.976 1059.74 175.379 1059.01 174.952C1058.27 174.525 1057.4 174.312 1056.4 174.312C1055.4 174.312 1054.53 174.525 1053.79 174.952C1053.05 175.379 1052.48 175.976 1052.08 176.744C1051.68 177.501 1051.49 178.387 1051.49 179.4C1051.49 180.392 1051.68 181.272 1052.08 182.04C1052.48 182.808 1053.05 183.405 1053.79 183.832C1054.53 184.259 1055.4 184.472 1056.4 184.472ZM1056.4 183.096C1055.76 183.096 1055.18 182.952 1054.65 182.664C1054.13 182.376 1053.71 181.955 1053.39 181.4C1053.08 180.835 1052.93 180.163 1052.93 179.384C1052.93 178.605 1053.08 177.939 1053.39 177.384C1053.71 176.829 1054.13 176.408 1054.65 176.12C1055.18 175.821 1055.76 175.672 1056.4 175.672C1057.19 175.672 1057.88 175.885 1058.48 176.312C1059.08 176.728 1059.48 177.331 1059.68 178.12H1058.45C1058.3 177.64 1058.04 177.277 1057.66 177.032C1057.29 176.776 1056.86 176.648 1056.38 176.648C1055.76 176.648 1055.23 176.877 1054.78 177.336C1054.33 177.795 1054.11 178.483 1054.11 179.4C1054.11 180.307 1054.33 180.989 1054.78 181.448C1055.23 181.907 1055.76 182.136 1056.38 182.136C1057.43 182.136 1058.12 181.651 1058.45 180.68H1059.68C1059.48 181.427 1059.08 182.019 1058.48 182.456C1057.88 182.883 1057.19 183.096 1056.4 183.096ZM1067.99 185V184.056C1068.75 183.459 1069.46 182.856 1070.14 182.248C1070.82 181.629 1071.42 181.021 1071.94 180.424C1072.48 179.827 1072.89 179.24 1073.19 178.664C1073.5 178.088 1073.66 177.533 1073.66 177C1073.66 176.605 1073.59 176.237 1073.45 175.896C1073.32 175.555 1073.11 175.283 1072.81 175.08C1072.51 174.867 1072.1 174.76 1071.59 174.76C1071.1 174.76 1070.69 174.872 1070.36 175.096C1070.03 175.309 1069.78 175.597 1069.61 175.96C1069.45 176.323 1069.37 176.712 1069.37 177.128H1068.07C1068.07 176.392 1068.23 175.763 1068.54 175.24C1068.85 174.707 1069.27 174.301 1069.8 174.024C1070.33 173.747 1070.94 173.608 1071.61 173.608C1072.6 173.608 1073.41 173.891 1074.04 174.456C1074.68 175.011 1075 175.843 1075 176.952C1075 177.613 1074.84 178.269 1074.5 178.92C1074.17 179.56 1073.75 180.184 1073.24 180.792C1072.73 181.389 1072.18 181.949 1071.59 182.472C1071.02 182.995 1070.48 183.464 1069.98 183.88H1075.38V185H1067.99ZM1081.54 185.192C1080.54 185.192 1079.69 184.952 1078.96 184.472C1078.25 183.981 1077.7 183.304 1077.31 182.44C1076.93 181.565 1076.74 180.552 1076.74 179.4C1076.74 178.248 1076.93 177.24 1077.31 176.376C1077.7 175.501 1078.25 174.824 1078.96 174.344C1079.69 173.853 1080.54 173.608 1081.54 173.608C1082.53 173.608 1083.38 173.853 1084.1 174.344C1084.81 174.824 1085.36 175.501 1085.74 176.376C1086.13 177.24 1086.32 178.248 1086.32 179.4C1086.32 180.552 1086.13 181.565 1085.74 182.44C1085.36 183.304 1084.81 183.981 1084.1 184.472C1083.38 184.952 1082.53 185.192 1081.54 185.192ZM1081.54 184.008C1082.19 184.008 1082.77 183.827 1083.28 183.464C1083.8 183.091 1084.21 182.563 1084.5 181.88C1084.8 181.187 1084.94 180.36 1084.94 179.4C1084.94 178.44 1084.8 177.619 1084.5 176.936C1084.21 176.253 1083.8 175.731 1083.28 175.368C1082.77 174.995 1082.19 174.808 1081.54 174.808C1080.88 174.808 1080.29 174.995 1079.78 175.368C1079.26 175.731 1078.86 176.253 1078.56 176.936C1078.26 177.619 1078.11 178.44 1078.11 179.4C1078.11 180.36 1078.26 181.187 1078.56 181.88C1078.86 182.563 1079.26 183.091 1079.78 183.464C1080.29 183.827 1080.88 184.008 1081.54 184.008ZM1087.93 185V184.056C1088.69 183.459 1089.4 182.856 1090.07 182.248C1090.76 181.629 1091.36 181.021 1091.88 180.424C1092.42 179.827 1092.83 179.24 1093.13 178.664C1093.44 178.088 1093.59 177.533 1093.59 177C1093.59 176.605 1093.52 176.237 1093.39 175.896C1093.26 175.555 1093.04 175.283 1092.75 175.08C1092.45 174.867 1092.04 174.76 1091.53 174.76C1091.04 174.76 1090.63 174.872 1090.3 175.096C1089.97 175.309 1089.72 175.597 1089.55 175.96C1089.39 176.323 1089.31 176.712 1089.31 177.128H1088.01C1088.01 176.392 1088.16 175.763 1088.47 175.24C1088.78 174.707 1089.2 174.301 1089.74 174.024C1090.27 173.747 1090.87 173.608 1091.55 173.608C1092.54 173.608 1093.35 173.891 1093.98 174.456C1094.62 175.011 1094.94 175.843 1094.94 176.952C1094.94 177.613 1094.77 178.269 1094.44 178.92C1094.11 179.56 1093.69 180.184 1093.18 180.792C1092.67 181.389 1092.12 181.949 1091.53 182.472C1090.95 182.995 1090.42 183.464 1089.91 183.88H1095.32V185H1087.93ZM1097.09 185V184.056C1097.84 183.459 1098.56 182.856 1099.23 182.248C1099.91 181.629 1100.52 181.021 1101.04 180.424C1101.57 179.827 1101.99 179.24 1102.29 178.664C1102.6 178.088 1102.75 177.533 1102.75 177C1102.75 176.605 1102.68 176.237 1102.54 175.896C1102.41 175.555 1102.2 175.283 1101.9 175.08C1101.6 174.867 1101.2 174.76 1100.69 174.76C1100.2 174.76 1099.78 174.872 1099.45 175.096C1099.12 175.309 1098.87 175.597 1098.7 175.96C1098.54 176.323 1098.46 176.712 1098.46 177.128H1097.17C1097.17 176.392 1097.32 175.763 1097.63 175.24C1097.94 174.707 1098.36 174.301 1098.89 174.024C1099.43 173.747 1100.03 173.608 1100.7 173.608C1101.69 173.608 1102.5 173.891 1103.13 174.456C1103.77 175.011 1104.09 175.843 1104.09 176.952C1104.09 177.613 1103.93 178.269 1103.6 178.92C1103.27 179.56 1102.85 180.184 1102.33 180.792C1101.82 181.389 1101.27 181.949 1100.69 182.472C1100.11 182.995 1099.57 183.464 1099.07 183.88H1104.48V185H1097.09ZM1113.28 185V174.904H1109.93V173.8H1117.96V174.904H1114.62V185H1113.28ZM1118.62 185V177.064H1119.84L1119.95 178.584C1120.19 178.061 1120.57 177.645 1121.07 177.336C1121.57 177.027 1122.19 176.872 1122.92 176.872V178.28H1122.56C1122.09 178.28 1121.65 178.365 1121.26 178.536C1120.86 178.696 1120.55 178.973 1120.32 179.368C1120.08 179.763 1119.96 180.307 1119.96 181V185H1118.62ZM1127.07 185.192C1126.41 185.192 1125.86 185.08 1125.42 184.856C1124.99 184.632 1124.66 184.333 1124.45 183.96C1124.23 183.587 1124.13 183.181 1124.13 182.744C1124.13 181.933 1124.44 181.309 1125.06 180.872C1125.67 180.435 1126.52 180.216 1127.58 180.216H1129.73V180.12C1129.73 179.427 1129.55 178.904 1129.18 178.552C1128.82 178.189 1128.34 178.008 1127.73 178.008C1127.21 178.008 1126.75 178.141 1126.37 178.408C1125.99 178.664 1125.76 179.043 1125.66 179.544H1124.29C1124.34 178.968 1124.53 178.483 1124.86 178.088C1125.21 177.693 1125.63 177.395 1126.13 177.192C1126.63 176.979 1127.16 176.872 1127.73 176.872C1128.84 176.872 1129.67 177.171 1130.22 177.768C1130.79 178.355 1131.07 179.139 1131.07 180.12V185H1129.87L1129.79 183.576C1129.57 184.024 1129.24 184.408 1128.8 184.728C1128.37 185.037 1127.8 185.192 1127.07 185.192ZM1127.28 184.056C1127.79 184.056 1128.23 183.923 1128.59 183.656C1128.97 183.389 1129.25 183.043 1129.44 182.616C1129.63 182.189 1129.73 181.741 1129.73 181.272V181.256H1127.7C1126.91 181.256 1126.35 181.395 1126.02 181.672C1125.7 181.939 1125.54 182.275 1125.54 182.68C1125.54 183.096 1125.69 183.432 1125.98 183.688C1126.29 183.933 1126.73 184.056 1127.28 184.056ZM1136.74 185.192C1135.98 185.192 1135.3 185.021 1134.69 184.68C1134.09 184.328 1133.62 183.843 1133.26 183.224C1132.92 182.595 1132.75 181.864 1132.75 181.032C1132.75 180.2 1132.92 179.475 1133.26 178.856C1133.62 178.227 1134.09 177.741 1134.69 177.4C1135.3 177.048 1135.98 176.872 1136.74 176.872C1137.68 176.872 1138.46 177.117 1139.1 177.608C1139.76 178.099 1140.17 178.755 1140.34 179.576H1138.96C1138.85 179.085 1138.59 178.707 1138.18 178.44C1137.76 178.163 1137.28 178.024 1136.72 178.024C1136.27 178.024 1135.85 178.136 1135.46 178.36C1135.06 178.584 1134.74 178.92 1134.5 179.368C1134.25 179.816 1134.13 180.371 1134.13 181.032C1134.13 181.693 1134.25 182.248 1134.5 182.696C1134.74 183.144 1135.06 183.485 1135.46 183.72C1135.85 183.944 1136.27 184.056 1136.72 184.056C1137.28 184.056 1137.76 183.923 1138.18 183.656C1138.59 183.379 1138.85 182.989 1138.96 182.488H1140.34C1140.18 183.288 1139.77 183.939 1139.12 184.44C1138.47 184.941 1137.68 185.192 1136.74 185.192ZM1142.21 185V173.48H1143.56V180.408L1146.81 177.064H1148.45L1144.93 180.648L1148.9 185H1147.19L1143.56 180.888V185H1142.21ZM1153.27 185.192C1152.51 185.192 1151.84 185.021 1151.25 184.68C1150.66 184.328 1150.2 183.843 1149.86 183.224C1149.53 182.605 1149.36 181.875 1149.36 181.032C1149.36 180.2 1149.53 179.475 1149.86 178.856C1150.19 178.227 1150.65 177.741 1151.23 177.4C1151.83 177.048 1152.52 176.872 1153.3 176.872C1154.07 176.872 1154.73 177.048 1155.28 177.4C1155.85 177.741 1156.28 178.195 1156.58 178.76C1156.88 179.325 1157.03 179.933 1157.03 180.584C1157.03 180.701 1157.02 180.819 1157.01 180.936C1157.01 181.053 1157.01 181.187 1157.01 181.336H1150.69C1150.72 181.944 1150.86 182.451 1151.11 182.856C1151.36 183.251 1151.68 183.549 1152.05 183.752C1152.43 183.955 1152.84 184.056 1153.27 184.056C1153.82 184.056 1154.28 183.928 1154.66 183.672C1155.03 183.416 1155.3 183.069 1155.47 182.632H1156.8C1156.59 183.368 1156.18 183.981 1155.57 184.472C1154.97 184.952 1154.2 185.192 1153.27 185.192ZM1153.27 178.008C1152.63 178.008 1152.06 178.205 1151.55 178.6C1151.06 178.984 1150.78 179.549 1150.71 180.296H1155.7C1155.67 179.581 1155.42 179.021 1154.96 178.616C1154.5 178.211 1153.94 178.008 1153.27 178.008ZM1158.81 185V177.064H1160.02L1160.14 178.584C1160.38 178.061 1160.75 177.645 1161.26 177.336C1161.76 177.027 1162.38 176.872 1163.11 176.872V178.28H1162.74C1162.27 178.28 1161.84 178.365 1161.45 178.536C1161.05 178.696 1160.74 178.973 1160.5 179.368C1160.27 179.763 1160.15 180.307 1160.15 181V185H1158.81ZM1164.44 185.08C1164.18 185.08 1163.95 184.995 1163.77 184.824C1163.6 184.643 1163.52 184.424 1163.52 184.168C1163.52 183.912 1163.6 183.699 1163.77 183.528C1163.95 183.347 1164.18 183.256 1164.44 183.256C1164.7 183.256 1164.91 183.347 1165.08 183.528C1165.26 183.699 1165.36 183.912 1165.36 184.168C1165.36 184.424 1165.26 184.643 1165.08 184.824C1164.91 184.995 1164.7 185.08 1164.44 185.08ZM1170.71 185L1174.84 173.8H1176.27L1180.38 185H1178.95L1177.93 182.12H1173.16L1172.12 185H1170.71ZM1173.56 181.032H1177.53L1175.55 175.496L1173.56 181.032ZM1181.96 185V173.48H1183.31V185H1181.96ZM1185.51 185V173.48H1186.85V185H1185.51ZM1193.29 185V177.064H1194.51L1194.62 178.584C1194.86 178.061 1195.24 177.645 1195.74 177.336C1196.24 177.027 1196.86 176.872 1197.6 176.872V178.28H1197.23C1196.76 178.28 1196.33 178.365 1195.93 178.536C1195.54 178.696 1195.22 178.973 1194.99 179.368C1194.75 179.763 1194.64 180.307 1194.64 181V185H1193.29ZM1199.92 175.304C1199.65 175.304 1199.43 175.219 1199.25 175.048C1199.08 174.867 1198.99 174.643 1198.99 174.376C1198.99 174.12 1199.08 173.907 1199.25 173.736C1199.43 173.565 1199.65 173.48 1199.92 173.48C1200.18 173.48 1200.39 173.565 1200.58 173.736C1200.76 173.907 1200.85 174.12 1200.85 174.376C1200.85 174.643 1200.76 174.867 1200.58 175.048C1200.39 175.219 1200.18 175.304 1199.92 175.304ZM1199.25 185V177.064H1200.59V185H1199.25ZM1206.07 182.504C1205.62 182.504 1205.21 182.445 1204.84 182.328L1204.04 183.08C1204.15 183.165 1204.3 183.24 1204.47 183.304C1204.65 183.357 1204.91 183.411 1205.24 183.464C1205.57 183.507 1206.03 183.555 1206.63 183.608C1207.69 183.683 1208.46 183.928 1208.92 184.344C1209.37 184.76 1209.6 185.304 1209.6 185.976C1209.6 186.435 1209.48 186.872 1209.22 187.288C1208.97 187.704 1208.59 188.045 1208.07 188.312C1207.56 188.579 1206.89 188.712 1206.08 188.712C1205.37 188.712 1204.73 188.616 1204.18 188.424C1203.63 188.243 1203.19 187.96 1202.88 187.576C1202.57 187.203 1202.42 186.728 1202.42 186.152C1202.42 185.853 1202.5 185.528 1202.66 185.176C1202.82 184.835 1203.12 184.509 1203.56 184.2C1203.32 184.104 1203.12 184.003 1202.95 183.896C1202.79 183.779 1202.64 183.651 1202.5 183.512V183.144L1203.86 181.8C1203.23 181.267 1202.92 180.563 1202.92 179.688C1202.92 179.165 1203.04 178.691 1203.28 178.264C1203.53 177.837 1203.89 177.501 1204.36 177.256C1204.83 177 1205.4 176.872 1206.07 176.872C1206.53 176.872 1206.94 176.936 1207.32 177.064H1210.24V178.072L1208.76 178.136C1209.07 178.584 1209.22 179.101 1209.22 179.688C1209.22 180.211 1209.09 180.685 1208.84 181.112C1208.59 181.539 1208.23 181.88 1207.76 182.136C1207.31 182.381 1206.74 182.504 1206.07 182.504ZM1206.07 181.4C1206.63 181.4 1207.08 181.256 1207.41 180.968C1207.75 180.669 1207.92 180.243 1207.92 179.688C1207.92 179.144 1207.75 178.728 1207.41 178.44C1207.08 178.141 1206.63 177.992 1206.07 177.992C1205.49 177.992 1205.03 178.141 1204.69 178.44C1204.36 178.728 1204.2 179.144 1204.2 179.688C1204.2 180.243 1204.36 180.669 1204.69 180.968C1205.03 181.256 1205.49 181.4 1206.07 181.4ZM1203.73 186.024C1203.73 186.557 1203.96 186.952 1204.4 187.208C1204.85 187.475 1205.41 187.608 1206.08 187.608C1206.75 187.608 1207.27 187.464 1207.67 187.176C1208.07 186.888 1208.28 186.504 1208.28 186.024C1208.28 185.683 1208.14 185.384 1207.86 185.128C1207.58 184.883 1207.07 184.739 1206.32 184.696C1205.74 184.653 1205.23 184.6 1204.8 184.536C1204.37 184.771 1204.08 185.021 1203.94 185.288C1203.8 185.565 1203.73 185.811 1203.73 186.024ZM1211.76 185V173.48H1213.1V178.424C1213.37 177.933 1213.75 177.555 1214.24 177.288C1214.73 177.011 1215.26 176.872 1215.84 176.872C1216.76 176.872 1217.49 177.16 1218.05 177.736C1218.6 178.301 1218.88 179.176 1218.88 180.36V185H1217.55V180.504C1217.55 178.851 1216.89 178.024 1215.55 178.024C1214.86 178.024 1214.28 178.275 1213.81 178.776C1213.34 179.267 1213.1 179.971 1213.1 180.888V185H1211.76ZM1224.05 185C1223.33 185 1222.76 184.824 1222.34 184.472C1221.92 184.12 1221.72 183.485 1221.72 182.568V178.2H1220.34V177.064H1221.72L1221.89 175.16H1223.06V177.064H1225.4V178.2H1223.06V182.568C1223.06 183.069 1223.16 183.411 1223.36 183.592C1223.57 183.763 1223.92 183.848 1224.44 183.848H1225.27V185H1224.05ZM1230.14 185.192C1229.19 185.192 1228.41 184.952 1227.78 184.472C1227.15 183.992 1226.78 183.341 1226.67 182.52H1228.05C1228.13 182.936 1228.35 183.299 1228.7 183.608C1229.07 183.907 1229.55 184.056 1230.16 184.056C1230.73 184.056 1231.14 183.939 1231.41 183.704C1231.67 183.459 1231.81 183.171 1231.81 182.84C1231.81 182.36 1231.63 182.04 1231.28 181.88C1230.94 181.72 1230.45 181.576 1229.82 181.448C1229.4 181.363 1228.97 181.24 1228.54 181.08C1228.12 180.92 1227.76 180.696 1227.47 180.408C1227.18 180.109 1227.04 179.72 1227.04 179.24C1227.04 178.547 1227.3 177.981 1227.81 177.544C1228.33 177.096 1229.03 176.872 1229.92 176.872C1230.76 176.872 1231.45 177.085 1231.98 177.512C1232.53 177.928 1232.84 178.525 1232.93 179.304H1231.6C1231.55 178.899 1231.37 178.584 1231.07 178.36C1230.78 178.125 1230.39 178.008 1229.9 178.008C1229.42 178.008 1229.05 178.109 1228.78 178.312C1228.53 178.515 1228.4 178.781 1228.4 179.112C1228.4 179.432 1228.57 179.683 1228.9 179.864C1229.24 180.045 1229.7 180.2 1230.27 180.328C1230.76 180.435 1231.23 180.568 1231.66 180.728C1232.11 180.877 1232.47 181.107 1232.75 181.416C1233.04 181.715 1233.18 182.152 1233.18 182.728C1233.19 183.443 1232.92 184.035 1232.37 184.504C1231.82 184.963 1231.08 185.192 1230.14 185.192ZM1239.34 185V177.064H1240.55L1240.67 178.584C1240.91 178.061 1241.29 177.645 1241.79 177.336C1242.29 177.027 1242.91 176.872 1243.64 176.872V178.28H1243.27C1242.81 178.28 1242.37 178.365 1241.98 178.536C1241.58 178.696 1241.27 178.973 1241.03 179.368C1240.8 179.763 1240.68 180.307 1240.68 181V185H1239.34ZM1248.42 185.192C1247.66 185.192 1246.99 185.021 1246.41 184.68C1245.82 184.328 1245.36 183.843 1245.01 183.224C1244.68 182.605 1244.52 181.875 1244.52 181.032C1244.52 180.2 1244.68 179.475 1245.01 178.856C1245.34 178.227 1245.8 177.741 1246.39 177.4C1246.99 177.048 1247.68 176.872 1248.45 176.872C1249.22 176.872 1249.88 177.048 1250.44 177.4C1251 177.741 1251.44 178.195 1251.73 178.76C1252.03 179.325 1252.18 179.933 1252.18 180.584C1252.18 180.701 1252.18 180.819 1252.17 180.936C1252.17 181.053 1252.17 181.187 1252.17 181.336H1245.85C1245.88 181.944 1246.02 182.451 1246.26 182.856C1246.52 183.251 1246.83 183.549 1247.21 183.752C1247.59 183.955 1248 184.056 1248.42 184.056C1248.98 184.056 1249.44 183.928 1249.81 183.672C1250.19 183.416 1250.46 183.069 1250.63 182.632H1251.96C1251.74 183.368 1251.33 183.981 1250.73 184.472C1250.13 184.952 1249.36 185.192 1248.42 185.192ZM1248.42 178.008C1247.78 178.008 1247.21 178.205 1246.71 178.6C1246.22 178.984 1245.94 179.549 1245.86 180.296H1250.85C1250.82 179.581 1250.58 179.021 1250.12 178.616C1249.66 178.211 1249.09 178.008 1248.42 178.008ZM1257 185.192C1256.05 185.192 1255.26 184.952 1254.64 184.472C1254.01 183.992 1253.64 183.341 1253.53 182.52H1254.91C1254.99 182.936 1255.21 183.299 1255.56 183.608C1255.93 183.907 1256.41 184.056 1257.02 184.056C1257.58 184.056 1258 183.939 1258.27 183.704C1258.53 183.459 1258.67 183.171 1258.67 182.84C1258.67 182.36 1258.49 182.04 1258.14 181.88C1257.8 181.72 1257.31 181.576 1256.68 181.448C1256.26 181.363 1255.83 181.24 1255.4 181.08C1254.98 180.92 1254.62 180.696 1254.33 180.408C1254.04 180.109 1253.9 179.72 1253.9 179.24C1253.9 178.547 1254.16 177.981 1254.67 177.544C1255.19 177.096 1255.89 176.872 1256.78 176.872C1257.62 176.872 1258.31 177.085 1258.84 177.512C1259.39 177.928 1259.7 178.525 1259.79 179.304H1258.46C1258.41 178.899 1258.23 178.584 1257.93 178.36C1257.64 178.125 1257.25 178.008 1256.76 178.008C1256.28 178.008 1255.91 178.109 1255.64 178.312C1255.39 178.515 1255.26 178.781 1255.26 179.112C1255.26 179.432 1255.42 179.683 1255.76 179.864C1256.1 180.045 1256.56 180.2 1257.13 180.328C1257.62 180.435 1258.09 180.568 1258.52 180.728C1258.97 180.877 1259.33 181.107 1259.61 181.416C1259.9 181.715 1260.04 182.152 1260.04 182.728C1260.05 183.443 1259.78 184.035 1259.23 184.504C1258.68 184.963 1257.94 185.192 1257 185.192ZM1265.53 185.192C1264.77 185.192 1264.1 185.021 1263.52 184.68C1262.93 184.328 1262.46 183.843 1262.12 183.224C1261.79 182.605 1261.63 181.875 1261.63 181.032C1261.63 180.2 1261.79 179.475 1262.12 178.856C1262.45 178.227 1262.91 177.741 1263.5 177.4C1264.1 177.048 1264.78 176.872 1265.56 176.872C1266.33 176.872 1266.99 177.048 1267.55 177.4C1268.11 177.741 1268.54 178.195 1268.84 178.76C1269.14 179.325 1269.29 179.933 1269.29 180.584C1269.29 180.701 1269.29 180.819 1269.28 180.936C1269.28 181.053 1269.28 181.187 1269.28 181.336H1262.96C1262.99 181.944 1263.13 182.451 1263.37 182.856C1263.63 183.251 1263.94 183.549 1264.32 183.752C1264.7 183.955 1265.1 184.056 1265.53 184.056C1266.09 184.056 1266.55 183.928 1266.92 183.672C1267.3 183.416 1267.57 183.069 1267.74 182.632H1269.07C1268.85 183.368 1268.44 183.981 1267.84 184.472C1267.24 184.952 1266.47 185.192 1265.53 185.192ZM1265.53 178.008C1264.89 178.008 1264.32 178.205 1263.82 178.6C1263.33 178.984 1263.05 179.549 1262.97 180.296H1267.96C1267.93 179.581 1267.69 179.021 1267.23 178.616C1266.77 178.211 1266.2 178.008 1265.53 178.008ZM1271.07 185V177.064H1272.29L1272.4 178.584C1272.65 178.061 1273.02 177.645 1273.52 177.336C1274.02 177.027 1274.64 176.872 1275.38 176.872V178.28H1275.01C1274.54 178.28 1274.11 178.365 1273.71 178.536C1273.32 178.696 1273 178.973 1272.77 179.368C1272.53 179.763 1272.42 180.307 1272.42 181V185H1271.07ZM1279.17 185L1276.17 177.064H1277.57L1279.96 183.704L1282.36 177.064H1283.73L1280.73 185H1279.17ZM1288.39 185.192C1287.63 185.192 1286.96 185.021 1286.37 184.68C1285.79 184.328 1285.32 183.843 1284.98 183.224C1284.65 182.605 1284.49 181.875 1284.49 181.032C1284.49 180.2 1284.65 179.475 1284.98 178.856C1285.31 178.227 1285.77 177.741 1286.36 177.4C1286.96 177.048 1287.64 176.872 1288.42 176.872C1289.19 176.872 1289.85 177.048 1290.41 177.4C1290.97 177.741 1291.4 178.195 1291.7 178.76C1292 179.325 1292.15 179.933 1292.15 180.584C1292.15 180.701 1292.15 180.819 1292.13 180.936C1292.13 181.053 1292.13 181.187 1292.13 181.336H1285.81C1285.85 181.944 1285.99 182.451 1286.23 182.856C1286.49 183.251 1286.8 183.549 1287.17 183.752C1287.56 183.955 1287.96 184.056 1288.39 184.056C1288.95 184.056 1289.41 183.928 1289.78 183.672C1290.16 183.416 1290.43 183.069 1290.6 182.632H1291.93C1291.71 183.368 1291.3 183.981 1290.69 184.472C1290.1 184.952 1289.33 185.192 1288.39 185.192ZM1288.39 178.008C1287.75 178.008 1287.18 178.205 1286.68 178.6C1286.19 178.984 1285.91 179.549 1285.83 180.296H1290.82C1290.79 179.581 1290.55 179.021 1290.09 178.616C1289.63 178.211 1289.06 178.008 1288.39 178.008ZM1297.53 185.192C1296.74 185.192 1296.05 185.011 1295.45 184.648C1294.87 184.285 1294.41 183.789 1294.08 183.16C1293.76 182.531 1293.6 181.816 1293.6 181.016C1293.6 180.216 1293.76 179.507 1294.09 178.888C1294.42 178.259 1294.88 177.768 1295.47 177.416C1296.05 177.053 1296.75 176.872 1297.55 176.872C1298.2 176.872 1298.77 177.005 1299.28 177.272C1299.78 177.539 1300.17 177.912 1300.44 178.392V173.48H1301.79V185H1300.57L1300.44 183.688C1300.19 184.072 1299.82 184.419 1299.34 184.728C1298.86 185.037 1298.26 185.192 1297.53 185.192ZM1297.68 184.024C1298.21 184.024 1298.68 183.901 1299.08 183.656C1299.5 183.4 1299.82 183.048 1300.04 182.6C1300.28 182.152 1300.4 181.629 1300.4 181.032C1300.4 180.435 1300.28 179.912 1300.04 179.464C1299.82 179.016 1299.5 178.669 1299.08 178.424C1298.68 178.168 1298.21 178.04 1297.68 178.04C1297.15 178.04 1296.68 178.168 1296.27 178.424C1295.86 178.669 1295.54 179.016 1295.31 179.464C1295.08 179.912 1294.97 180.435 1294.97 181.032C1294.97 181.629 1295.08 182.152 1295.31 182.6C1295.54 183.048 1295.86 183.4 1296.27 183.656C1296.68 183.901 1297.15 184.024 1297.68 184.024ZM1304.44 185.08C1304.18 185.08 1303.95 184.995 1303.77 184.824C1303.6 184.643 1303.52 184.424 1303.52 184.168C1303.52 183.912 1303.6 183.699 1303.77 183.528C1303.95 183.347 1304.18 183.256 1304.44 183.256C1304.7 183.256 1304.91 183.347 1305.08 183.528C1305.26 183.699 1305.36 183.912 1305.36 184.168C1305.36 184.424 1305.26 184.643 1305.08 184.824C1304.91 184.995 1304.7 185.08 1304.44 185.08Z" fill="black"/>
<path d="M293.295 185.592C292.197 185.592 291.247 185.352 290.447 184.872C289.658 184.381 289.045 183.704 288.607 182.84C288.17 181.965 287.951 180.952 287.951 179.8C287.951 178.659 288.17 177.656 288.607 176.792C289.045 175.917 289.658 175.235 290.447 174.744C291.247 174.253 292.197 174.008 293.295 174.008C294.575 174.008 295.615 174.317 296.415 174.936C297.226 175.544 297.743 176.397 297.967 177.496H296.479C296.309 176.803 295.957 176.248 295.423 175.832C294.901 175.405 294.191 175.192 293.295 175.192C292.495 175.192 291.797 175.379 291.199 175.752C290.602 176.115 290.138 176.643 289.807 177.336C289.487 178.019 289.327 178.84 289.327 179.8C289.327 180.76 289.487 181.587 289.807 182.28C290.138 182.963 290.602 183.491 291.199 183.864C291.797 184.227 292.495 184.408 293.295 184.408C294.191 184.408 294.901 184.205 295.423 183.8C295.957 183.384 296.309 182.835 296.479 182.152H297.967C297.743 183.229 297.226 184.072 296.415 184.68C295.615 185.288 294.575 185.592 293.295 185.592ZM303.435 185.592C302.688 185.592 302.016 185.421 301.419 185.08C300.822 184.739 300.347 184.259 299.995 183.64C299.654 183.011 299.483 182.275 299.483 181.432C299.483 180.589 299.659 179.859 300.011 179.24C300.363 178.611 300.838 178.125 301.435 177.784C302.043 177.443 302.72 177.272 303.467 177.272C304.214 177.272 304.886 177.443 305.483 177.784C306.08 178.125 306.55 178.611 306.891 179.24C307.243 179.859 307.419 180.589 307.419 181.432C307.419 182.275 307.243 183.011 306.891 183.64C306.539 184.259 306.059 184.739 305.451 185.08C304.854 185.421 304.182 185.592 303.435 185.592ZM303.435 184.44C303.894 184.44 304.32 184.328 304.715 184.104C305.11 183.88 305.43 183.544 305.675 183.096C305.92 182.648 306.043 182.093 306.043 181.432C306.043 180.771 305.92 180.216 305.675 179.768C305.44 179.32 305.126 178.984 304.731 178.76C304.336 178.536 303.915 178.424 303.467 178.424C303.008 178.424 302.582 178.536 302.187 178.76C301.792 178.984 301.472 179.32 301.227 179.768C300.982 180.216 300.859 180.771 300.859 181.432C300.859 182.093 300.982 182.648 301.227 183.096C301.472 183.544 301.787 183.88 302.171 184.104C302.566 184.328 302.987 184.44 303.435 184.44ZM309.288 185.4V177.464H310.504L310.584 178.888C310.84 178.387 311.208 177.992 311.688 177.704C312.168 177.416 312.712 177.272 313.32 177.272C314.258 177.272 315.005 177.56 315.56 178.136C316.125 178.701 316.408 179.576 316.408 180.76V185.4H315.064V180.904C315.064 179.251 314.381 178.424 313.016 178.424C312.333 178.424 311.762 178.675 311.304 179.176C310.856 179.667 310.632 180.371 310.632 181.288V185.4H309.288ZM321.58 185.4C320.855 185.4 320.284 185.224 319.868 184.872C319.452 184.52 319.244 183.885 319.244 182.968V178.6H317.868V177.464H319.244L319.42 175.56H320.588V177.464H322.924V178.6H320.588V182.968C320.588 183.469 320.689 183.811 320.892 183.992C321.095 184.163 321.452 184.248 321.964 184.248H322.796V185.4H321.58ZM327.272 185.592C326.61 185.592 326.061 185.48 325.624 185.256C325.186 185.032 324.861 184.733 324.648 184.36C324.434 183.987 324.328 183.581 324.328 183.144C324.328 182.333 324.637 181.709 325.256 181.272C325.874 180.835 326.717 180.616 327.784 180.616H329.928V180.52C329.928 179.827 329.746 179.304 329.384 178.952C329.021 178.589 328.536 178.408 327.928 178.408C327.405 178.408 326.952 178.541 326.568 178.808C326.194 179.064 325.96 179.443 325.864 179.944H324.488C324.541 179.368 324.733 178.883 325.064 178.488C325.405 178.093 325.826 177.795 326.328 177.592C326.829 177.379 327.362 177.272 327.928 177.272C329.037 177.272 329.869 177.571 330.424 178.168C330.989 178.755 331.272 179.539 331.272 180.52V185.4H330.072L329.992 183.976C329.768 184.424 329.437 184.808 329 185.128C328.573 185.437 327.997 185.592 327.272 185.592ZM327.48 184.456C327.992 184.456 328.429 184.323 328.792 184.056C329.165 183.789 329.448 183.443 329.64 183.016C329.832 182.589 329.928 182.141 329.928 181.672V181.656H327.896C327.106 181.656 326.546 181.795 326.216 182.072C325.896 182.339 325.736 182.675 325.736 183.08C325.736 183.496 325.885 183.832 326.184 184.088C326.493 184.333 326.925 184.456 327.48 184.456ZM336.936 185.592C336.178 185.592 335.496 185.421 334.888 185.08C334.29 184.728 333.816 184.243 333.464 183.624C333.122 182.995 332.952 182.264 332.952 181.432C332.952 180.6 333.122 179.875 333.464 179.256C333.816 178.627 334.29 178.141 334.888 177.8C335.496 177.448 336.178 177.272 336.936 177.272C337.874 177.272 338.664 177.517 339.304 178.008C339.954 178.499 340.365 179.155 340.536 179.976H339.16C339.053 179.485 338.792 179.107 338.376 178.84C337.96 178.563 337.474 178.424 336.92 178.424C336.472 178.424 336.05 178.536 335.656 178.76C335.261 178.984 334.941 179.32 334.696 179.768C334.45 180.216 334.328 180.771 334.328 181.432C334.328 182.093 334.45 182.648 334.696 183.096C334.941 183.544 335.261 183.885 335.656 184.12C336.05 184.344 336.472 184.456 336.92 184.456C337.474 184.456 337.96 184.323 338.376 184.056C338.792 183.779 339.053 183.389 339.16 182.888H340.536C340.376 183.688 339.97 184.339 339.32 184.84C338.669 185.341 337.874 185.592 336.936 185.592ZM345.33 185.4C344.605 185.4 344.034 185.224 343.618 184.872C343.202 184.52 342.994 183.885 342.994 182.968V178.6H341.618V177.464H342.994L343.17 175.56H344.338V177.464H346.674V178.6H344.338V182.968C344.338 183.469 344.439 183.811 344.642 183.992C344.845 184.163 345.202 184.248 345.714 184.248H346.546V185.4H345.33ZM356.744 185.592C355.976 185.592 355.277 185.443 354.648 185.144C354.029 184.835 353.533 184.36 353.16 183.72C352.787 183.08 352.6 182.264 352.6 181.272V174.2H353.944V181.288C353.944 182.376 354.205 183.165 354.728 183.656C355.251 184.147 355.933 184.392 356.776 184.392C357.619 184.392 358.296 184.147 358.808 183.656C359.32 183.165 359.576 182.376 359.576 181.288V174.2H360.92V181.272C360.92 182.264 360.733 183.08 360.36 183.72C359.987 184.36 359.485 184.835 358.856 185.144C358.227 185.443 357.523 185.592 356.744 185.592ZM366.156 185.592C365.207 185.592 364.417 185.352 363.788 184.872C363.159 184.392 362.791 183.741 362.684 182.92H364.06C364.145 183.336 364.364 183.699 364.716 184.008C365.079 184.307 365.564 184.456 366.172 184.456C366.737 184.456 367.153 184.339 367.42 184.104C367.687 183.859 367.82 183.571 367.82 183.24C367.82 182.76 367.644 182.44 367.292 182.28C366.951 182.12 366.465 181.976 365.836 181.848C365.409 181.763 364.983 181.64 364.556 181.48C364.129 181.32 363.772 181.096 363.484 180.808C363.196 180.509 363.052 180.12 363.052 179.64C363.052 178.947 363.308 178.381 363.82 177.944C364.343 177.496 365.047 177.272 365.932 177.272C366.775 177.272 367.463 177.485 367.996 177.912C368.54 178.328 368.855 178.925 368.94 179.704H367.612C367.559 179.299 367.383 178.984 367.084 178.76C366.796 178.525 366.407 178.408 365.916 178.408C365.436 178.408 365.063 178.509 364.796 178.712C364.54 178.915 364.412 179.181 364.412 179.512C364.412 179.832 364.577 180.083 364.908 180.264C365.249 180.445 365.708 180.6 366.284 180.728C366.775 180.835 367.239 180.968 367.676 181.128C368.124 181.277 368.487 181.507 368.764 181.816C369.052 182.115 369.196 182.552 369.196 183.128C369.207 183.843 368.935 184.435 368.38 184.904C367.836 185.363 367.095 185.592 366.156 185.592Z" fill="black"/>
<path d="M196.48 185L200.608 173.8H202.032L206.144 185H204.72L203.696 182.12H198.928L197.888 185H196.48ZM199.328 181.032H203.296L201.312 175.496L199.328 181.032ZM211.969 185.192C211.318 185.192 210.737 185.059 210.225 184.792C209.724 184.525 209.34 184.152 209.073 183.672L208.945 185H207.729V173.48H209.073V178.376C209.329 177.992 209.692 177.645 210.161 177.336C210.641 177.027 211.249 176.872 211.985 176.872C212.774 176.872 213.462 177.053 214.049 177.416C214.636 177.779 215.089 178.275 215.409 178.904C215.74 179.533 215.905 180.248 215.905 181.048C215.905 181.848 215.74 182.563 215.409 183.192C215.089 183.811 214.63 184.301 214.033 184.664C213.446 185.016 212.758 185.192 211.969 185.192ZM211.825 184.024C212.358 184.024 212.828 183.901 213.233 183.656C213.638 183.4 213.958 183.048 214.193 182.6C214.428 182.152 214.545 181.629 214.545 181.032C214.545 180.435 214.428 179.912 214.193 179.464C213.958 179.016 213.638 178.669 213.233 178.424C212.828 178.168 212.358 178.04 211.825 178.04C211.292 178.04 210.822 178.168 210.417 178.424C210.012 178.669 209.692 179.016 209.457 179.464C209.222 179.912 209.105 180.435 209.105 181.032C209.105 181.629 209.222 182.152 209.457 182.6C209.692 183.048 210.012 183.4 210.417 183.656C210.822 183.901 211.292 184.024 211.825 184.024ZM221.392 185.192C220.645 185.192 219.973 185.021 219.376 184.68C218.779 184.339 218.304 183.859 217.952 183.24C217.611 182.611 217.44 181.875 217.44 181.032C217.44 180.189 217.616 179.459 217.968 178.84C218.32 178.211 218.795 177.725 219.392 177.384C220 177.043 220.677 176.872 221.424 176.872C222.171 176.872 222.843 177.043 223.44 177.384C224.037 177.725 224.507 178.211 224.848 178.84C225.2 179.459 225.376 180.189 225.376 181.032C225.376 181.875 225.2 182.611 224.848 183.24C224.496 183.859 224.016 184.339 223.408 184.68C222.811 185.021 222.139 185.192 221.392 185.192ZM221.392 184.04C221.851 184.04 222.277 183.928 222.672 183.704C223.067 183.48 223.387 183.144 223.632 182.696C223.877 182.248 224 181.693 224 181.032C224 180.371 223.877 179.816 223.632 179.368C223.397 178.92 223.083 178.584 222.688 178.36C222.293 178.136 221.872 178.024 221.424 178.024C220.965 178.024 220.539 178.136 220.144 178.36C219.749 178.584 219.429 178.92 219.184 179.368C218.939 179.816 218.816 180.371 218.816 181.032C218.816 181.693 218.939 182.248 219.184 182.696C219.429 183.144 219.744 183.48 220.128 183.704C220.523 183.928 220.944 184.04 221.392 184.04ZM230.141 185.192C229.202 185.192 228.455 184.909 227.901 184.344C227.346 183.768 227.069 182.888 227.069 181.704V177.064H228.413V181.56C228.413 183.213 229.09 184.04 230.445 184.04C231.138 184.04 231.709 183.795 232.157 183.304C232.615 182.803 232.845 182.093 232.845 181.176V177.064H234.189V185H232.973L232.877 183.576C232.631 184.077 232.263 184.472 231.773 184.76C231.293 185.048 230.749 185.192 230.141 185.192ZM239.537 185C238.812 185 238.241 184.824 237.825 184.472C237.409 184.12 237.201 183.485 237.201 182.568V178.2H235.825V177.064H237.201L237.377 175.16H238.545V177.064H240.881V178.2H238.545V182.568C238.545 183.069 238.646 183.411 238.849 183.592C239.052 183.763 239.409 183.848 239.921 183.848H240.753V185H239.537ZM250.951 185.192C250.183 185.192 249.484 185.043 248.855 184.744C248.236 184.435 247.74 183.96 247.367 183.32C246.993 182.68 246.807 181.864 246.807 180.872V173.8H248.151V180.888C248.151 181.976 248.412 182.765 248.935 183.256C249.457 183.747 250.14 183.992 250.983 183.992C251.825 183.992 252.503 183.747 253.015 183.256C253.527 182.765 253.783 181.976 253.783 180.888V173.8H255.127V180.872C255.127 181.864 254.94 182.68 254.567 183.32C254.193 183.96 253.692 184.435 253.063 184.744C252.433 185.043 251.729 185.192 250.951 185.192ZM260.363 185.192C259.413 185.192 258.624 184.952 257.995 184.472C257.365 183.992 256.997 183.341 256.891 182.52H258.267C258.352 182.936 258.571 183.299 258.923 183.608C259.285 183.907 259.771 184.056 260.379 184.056C260.944 184.056 261.36 183.939 261.627 183.704C261.893 183.459 262.027 183.171 262.027 182.84C262.027 182.36 261.851 182.04 261.499 181.88C261.157 181.72 260.672 181.576 260.043 181.448C259.616 181.363 259.189 181.24 258.763 181.08C258.336 180.92 257.979 180.696 257.691 180.408C257.403 180.109 257.259 179.72 257.259 179.24C257.259 178.547 257.515 177.981 258.027 177.544C258.549 177.096 259.253 176.872 260.139 176.872C260.981 176.872 261.669 177.085 262.203 177.512C262.747 177.928 263.061 178.525 263.147 179.304H261.819C261.765 178.899 261.589 178.584 261.291 178.36C261.003 178.125 260.613 178.008 260.123 178.008C259.643 178.008 259.269 178.109 259.003 178.312C258.747 178.515 258.619 178.781 258.619 179.112C258.619 179.432 258.784 179.683 259.115 179.864C259.456 180.045 259.915 180.2 260.491 180.328C260.981 180.435 261.445 180.568 261.883 180.728C262.331 180.877 262.693 181.107 262.971 181.416C263.259 181.715 263.403 182.152 263.403 182.728C263.413 183.443 263.141 184.035 262.587 184.504C262.043 184.963 261.301 185.192 260.363 185.192Z" fill="black"/>
<path d="M136.184 185V173.8H137.528V178.744H143.336V173.8H144.68V185H143.336V179.848H137.528V185H136.184ZM150.579 185.192C149.833 185.192 149.161 185.021 148.563 184.68C147.966 184.339 147.491 183.859 147.139 183.24C146.798 182.611 146.627 181.875 146.627 181.032C146.627 180.189 146.803 179.459 147.155 178.84C147.507 178.211 147.982 177.725 148.579 177.384C149.187 177.043 149.865 176.872 150.611 176.872C151.358 176.872 152.03 177.043 152.627 177.384C153.225 177.725 153.694 178.211 154.035 178.84C154.387 179.459 154.563 180.189 154.563 181.032C154.563 181.875 154.387 182.611 154.035 183.24C153.683 183.859 153.203 184.339 152.595 184.68C151.998 185.021 151.326 185.192 150.579 185.192ZM150.579 184.04C151.038 184.04 151.465 183.928 151.859 183.704C152.254 183.48 152.574 183.144 152.819 182.696C153.065 182.248 153.187 181.693 153.187 181.032C153.187 180.371 153.065 179.816 152.819 179.368C152.585 178.92 152.27 178.584 151.875 178.36C151.481 178.136 151.059 178.024 150.611 178.024C150.153 178.024 149.726 178.136 149.331 178.36C148.937 178.584 148.617 178.92 148.371 179.368C148.126 179.816 148.003 180.371 148.003 181.032C148.003 181.693 148.126 182.248 148.371 182.696C148.617 183.144 148.931 183.48 149.315 183.704C149.71 183.928 150.131 184.04 150.579 184.04ZM156.432 185V177.064H157.648L157.744 178.216C158 177.789 158.341 177.459 158.768 177.224C159.195 176.989 159.675 176.872 160.208 176.872C160.837 176.872 161.376 177 161.824 177.256C162.283 177.512 162.635 177.901 162.88 178.424C163.157 177.944 163.536 177.565 164.016 177.288C164.507 177.011 165.035 176.872 165.6 176.872C166.549 176.872 167.307 177.16 167.872 177.736C168.437 178.301 168.72 179.176 168.72 180.36V185H167.392V180.504C167.392 179.683 167.227 179.064 166.896 178.648C166.565 178.232 166.091 178.024 165.472 178.024C164.832 178.024 164.299 178.275 163.872 178.776C163.456 179.267 163.248 179.971 163.248 180.888V185H161.904V180.504C161.904 179.683 161.739 179.064 161.408 178.648C161.077 178.232 160.603 178.024 159.984 178.024C159.355 178.024 158.827 178.275 158.4 178.776C157.984 179.267 157.776 179.971 157.776 180.888V185H156.432ZM174.313 185.192C173.555 185.192 172.883 185.021 172.297 184.68C171.71 184.328 171.246 183.843 170.905 183.224C170.574 182.605 170.409 181.875 170.409 181.032C170.409 180.2 170.574 179.475 170.905 178.856C171.235 178.227 171.694 177.741 172.281 177.4C172.878 177.048 173.566 176.872 174.345 176.872C175.113 176.872 175.774 177.048 176.329 177.4C176.894 177.741 177.326 178.195 177.625 178.76C177.923 179.325 178.073 179.933 178.073 180.584C178.073 180.701 178.067 180.819 178.057 180.936C178.057 181.053 178.057 181.187 178.057 181.336H171.737C171.769 181.944 171.907 182.451 172.153 182.856C172.409 183.251 172.723 183.549 173.097 183.752C173.481 183.955 173.886 184.056 174.313 184.056C174.867 184.056 175.331 183.928 175.705 183.672C176.078 183.416 176.35 183.069 176.521 182.632H177.849C177.635 183.368 177.225 183.981 176.617 184.472C176.019 184.952 175.251 185.192 174.313 185.192ZM174.313 178.008C173.673 178.008 173.102 178.205 172.601 178.6C172.11 178.984 171.827 179.549 171.753 180.296H176.745C176.713 179.581 176.467 179.021 176.009 178.616C175.55 178.211 174.985 178.008 174.313 178.008Z" fill="black"/>
<path opacity="0.3" d="M136.095 121H1305.91" stroke="black" stroke-width="2" stroke-linecap="square"/>
<path d="M142.022 67V52.672H137.126V50.2H150.014V52.672H145.094V67H142.022ZM150.753 67V55.096H153.489L153.777 57.328C154.209 56.56 154.793 55.952 155.529 55.504C156.281 55.04 157.161 54.808 158.169 54.808V58.048H157.305C156.633 58.048 156.033 58.152 155.505 58.36C154.977 58.568 154.561 58.928 154.257 59.44C153.969 59.952 153.825 60.664 153.825 61.576V67H150.753ZM164.08 67.288C163.056 67.288 162.216 67.128 161.56 66.808C160.904 66.472 160.416 66.032 160.096 65.488C159.776 64.944 159.616 64.344 159.616 63.688C159.616 62.584 160.048 61.688 160.912 61C161.776 60.312 163.072 59.968 164.8 59.968H167.824V59.68C167.824 58.864 167.592 58.264 167.128 57.88C166.664 57.496 166.088 57.304 165.4 57.304C164.776 57.304 164.232 57.456 163.768 57.76C163.304 58.048 163.016 58.48 162.904 59.056H159.904C159.984 58.192 160.272 57.44 160.768 56.8C161.28 56.16 161.936 55.672 162.736 55.336C163.536 54.984 164.432 54.808 165.424 54.808C167.12 54.808 168.456 55.232 169.432 56.08C170.408 56.928 170.896 58.128 170.896 59.68V67H168.28L167.992 65.08C167.64 65.72 167.144 66.248 166.504 66.664C165.88 67.08 165.072 67.288 164.08 67.288ZM164.776 64.888C165.656 64.888 166.336 64.6 166.816 64.024C167.312 63.448 167.624 62.736 167.752 61.888H165.136C164.32 61.888 163.736 62.04 163.384 62.344C163.032 62.632 162.856 62.992 162.856 63.424C162.856 63.888 163.032 64.248 163.384 64.504C163.736 64.76 164.2 64.888 164.776 64.888ZM179.367 67.288C178.151 67.288 177.079 67.024 176.151 66.496C175.223 65.968 174.487 65.232 173.943 64.288C173.415 63.344 173.151 62.264 173.151 61.048C173.151 59.832 173.415 58.752 173.943 57.808C174.487 56.864 175.223 56.128 176.151 55.6C177.079 55.072 178.151 54.808 179.367 54.808C180.887 54.808 182.167 55.208 183.207 56.008C184.247 56.792 184.911 57.88 185.199 59.272H181.959C181.799 58.696 181.479 58.248 180.999 57.928C180.535 57.592 179.983 57.424 179.343 57.424C178.495 57.424 177.775 57.744 177.183 58.384C176.591 59.024 176.295 59.912 176.295 61.048C176.295 62.184 176.591 63.072 177.183 63.712C177.775 64.352 178.495 64.672 179.343 64.672C179.983 64.672 180.535 64.512 180.999 64.192C181.479 63.872 181.799 63.416 181.959 62.824H185.199C184.911 64.168 184.247 65.248 183.207 66.064C182.167 66.88 180.887 67.288 179.367 67.288ZM187.633 67V49.72H190.705V59.92L194.929 55.096H198.577L193.705 60.52L199.369 67H195.529L190.705 61.024V67H187.633ZM205.781 67.288C204.581 67.288 203.517 67.032 202.589 66.52C201.661 66.008 200.933 65.288 200.405 64.36C199.877 63.432 199.613 62.36 199.613 61.144C199.613 59.912 199.869 58.816 200.381 57.856C200.909 56.896 201.629 56.152 202.541 55.624C203.469 55.08 204.557 54.808 205.805 54.808C206.973 54.808 208.005 55.064 208.901 55.576C209.797 56.088 210.493 56.792 210.989 57.688C211.501 58.568 211.757 59.552 211.757 60.64C211.757 60.816 211.749 61 211.733 61.192C211.733 61.384 211.725 61.584 211.709 61.792H202.661C202.725 62.72 203.045 63.448 203.621 63.976C204.213 64.504 204.925 64.768 205.757 64.768C206.381 64.768 206.901 64.632 207.317 64.36C207.749 64.072 208.069 63.704 208.277 63.256H211.397C211.173 64.008 210.797 64.696 210.269 65.32C209.757 65.928 209.117 66.408 208.349 66.76C207.597 67.112 206.741 67.288 205.781 67.288ZM205.805 57.304C205.053 57.304 204.389 57.52 203.813 57.952C203.237 58.368 202.869 59.008 202.709 59.872H208.637C208.589 59.088 208.301 58.464 207.773 58C207.245 57.536 206.589 57.304 205.805 57.304ZM214.048 67V55.096H216.784L217.072 57.328C217.504 56.56 218.088 55.952 218.824 55.504C219.576 55.04 220.456 54.808 221.464 54.808V58.048H220.6C219.928 58.048 219.328 58.152 218.8 58.36C218.272 58.568 217.856 58.928 217.552 59.44C217.264 59.952 217.12 60.664 217.12 61.576V67H214.048Z" fill="black"/>
</g>
<defs>
<filter id="filter0_d_43_1545" x="-4" y="0" width="1448" height="248" filterUnits="userSpaceOnUse" color-interpolation-filters="sRGB">
<feFlood flood-opacity="0" result="BackgroundImageFix"/>
<feColorMatrix in="SourceAlpha" type="matrix" values="0 0 0 0 0 0 0 0 0 0 0 0 0 0 0 0 0 0 127 0" result="hardAlpha"/>
<feOffset dy="4"/>
<feGaussianBlur stdDeviation="2"/>
<feComposite in2="hardAlpha" operator="out"/>
<feColorMatrix type="matrix" values="0 0 0 0 0 0 0 0 0 0 0 0 0 0 0 0 0 0 0.25 0"/>
<feBlend mode="normal" in2="BackgroundImageFix" result="effect1_dropShadow_43_1545"/>
<feBlend mode="normal" in="SourceGraphic" in2="effect1_dropShadow_43_1545" result="shape"/>
</filter>
</defs>
</svg>
