<svg width="1440" height="106" viewBox="0 0 1440 106" fill="none" xmlns="http://www.w3.org/2000/svg">
<g filter="url(#filter0_d_43_1537)">
<rect width="1440" height="72" fill="white"/>
<path d="M136.571 22.8057L155.368 11.9131C156.343 11.3482 157.545 11.3468 158.522 11.9097L177.423 22.8069C178.399 23.3695 179 24.4102 179 25.5366V46.9016C179 48.0152 178.412 49.0461 177.454 49.6132L158.553 60.7997C157.561 61.3867 156.328 61.3853 155.337 60.7961L136.54 49.6143C135.585 49.0463 135 48.0174 135 46.9063V25.5319C135 24.408 135.599 23.3692 136.571 22.8057Z" fill="#6496EB"/>
<path d="M156.888 24.5038L145.128 35.9884L156.888 48.1356L168.76 35.9884L156.888 24.5038Z" fill="white"/>
<path d="M162.458 36.4323H151.655L157.056 41.9463L162.458 36.4323Z" fill="#6496EB"/>
<path d="M190.626 30.2514H195.482V45H199.946V30.2514H204.801V26.6751H190.626V30.2514ZM220.641 32.6268C220.641 34.0625 219.858 34.9239 218.187 34.9239H215.42V30.3819H218.187C219.858 30.3819 220.641 31.2694 220.641 32.6268ZM210.957 26.6751V45H215.42V38.0825H216.491L220.302 45H225.34L221.111 37.7431C223.93 36.9078 225.183 34.7412 225.183 32.4441C225.183 29.2594 222.938 26.6751 218.448 26.6751H210.957ZM244.405 45H249.129L242.499 26.6751H237.33L230.7 45H235.373L236.469 41.7631H243.308L244.405 45ZM242.16 38.3174H237.644L239.889 31.6088L242.16 38.3174ZM254.306 35.8115C254.306 41.2933 258.117 45.1305 263.52 45.1305C267.88 45.1305 271.169 42.7029 272.213 38.7351H267.306C266.549 40.3013 265.165 41.0844 263.468 41.0844C260.727 41.0844 258.848 39.0483 258.848 35.8115C258.848 32.5746 260.727 30.5385 263.468 30.5385C265.165 30.5385 266.549 31.3216 267.306 32.8878H272.213C271.169 28.9201 267.88 26.4663 263.52 26.4663C258.117 26.4663 254.306 30.3297 254.306 35.8115ZM289.486 45H294.942L287.581 35.6548L294.681 26.6751H289.434L283.326 34.7151V26.6751H278.862V45H283.326V36.9078L289.486 45ZM312.204 26.6751H300.979V45H312.204V41.4238H305.443V37.4038H311.42V33.9581H305.443V30.2514H312.204V26.6751ZM328.702 32.6268C328.702 34.0625 327.918 34.9239 326.248 34.9239H323.481V30.3819H326.248C327.918 30.3819 328.702 31.2694 328.702 32.6268ZM319.017 26.6751V45H323.481V38.0825H324.551L328.362 45H333.4L329.171 37.7431C331.991 36.9078 333.244 34.7412 333.244 32.4441C333.244 29.2594 330.999 26.6751 326.509 26.6751H319.017Z" fill="black"/>
</g>
<defs>
<filter id="filter0_d_43_1537" x="-30" y="-26" width="1500" height="132" filterUnits="userSpaceOnUse" color-interpolation-filters="sRGB">
<feFlood flood-opacity="0" result="BackgroundImageFix"/>
<feColorMatrix in="SourceAlpha" type="matrix" values="0 0 0 0 0 0 0 0 0 0 0 0 0 0 0 0 0 0 127 0" result="hardAlpha"/>
<feOffset dy="4"/>
<feGaussianBlur stdDeviation="15"/>
<feComposite in2="hardAlpha" operator="out"/>
<feColorMatrix type="matrix" values="0 0 0 0 0 0 0 0 0 0 0 0 0 0 0 0 0 0 0.15 0"/>
<feBlend mode="normal" in2="BackgroundImageFix" result="effect1_dropShadow_43_1537"/>
<feBlend mode="normal" in="SourceGraphic" in2="effect1_dropShadow_43_1537" result="shape"/>
</filter>
</defs>
</svg>
