<svg width="1169" height="54" viewBox="0 0 1169 54" fill="none" xmlns="http://www.w3.org/2000/svg">
<g opacity="0.7">
<rect y="1" width="1168" height="53" rx="10" fill="white"/>
<rect x="0.5" y="1.5" width="1167" height="52" rx="9.5" stroke="#151439" stroke-opacity="0.4"/>
</g>
<path d="M1104 0H1159.13C1164.1 0 1168.13 4.02944 1168.13 9V44.6199C1168.13 49.5904 1164.1 53.6199 1159.13 53.6199H1104V0Z" fill="#6496EB"/>
<path d="M1134.4 15.6583H1134.4C1133.13 15.6586 1131.87 15.9664 1130.74 16.5557C1129.6 17.145 1128.63 17.9984 1127.9 19.0438C1127.16 20.0893 1126.69 21.2959 1126.52 22.5618C1126.36 23.8276 1126.49 25.1153 1126.93 26.3161C1127.36 27.5169 1128.08 28.5953 1129.02 29.4602C1129.96 30.3252 1131.09 30.9511 1132.33 31.2852C1133.56 31.6192 1134.85 31.6515 1136.1 31.3794C1137.27 31.1235 1138.37 30.6054 1139.32 29.8653L1144.94 35.4854L1144.94 35.4945L1144.95 35.5025L1145.05 35.5823L1145.06 35.5884L1145.07 35.5938C1145.26 35.7293 1145.5 35.7868 1145.74 35.755C1145.97 35.7232 1146.19 35.6044 1146.34 35.422C1146.49 35.2396 1146.57 35.0068 1146.56 34.7695C1146.55 34.5322 1146.45 34.3076 1146.28 34.14L1140.66 28.5217C1141.54 27.3953 1142.11 26.0496 1142.29 24.6263C1142.49 23.1274 1142.25 21.6044 1141.61 20.2359C1140.97 18.8674 1139.95 17.71 1138.67 16.8992C1137.4 16.0885 1135.92 15.6581 1134.4 15.6583ZM1130.13 19.3311C1131.26 18.1962 1132.8 17.5587 1134.4 17.5587C1136.01 17.5587 1137.55 18.1962 1138.68 19.3311C1139.82 20.466 1140.46 22.0052 1140.46 23.6102C1140.46 25.2152 1139.82 26.7544 1138.68 27.8893C1137.55 29.0242 1136.01 29.6617 1134.4 29.6617C1132.8 29.6617 1131.26 29.0242 1130.13 27.8893C1128.99 26.7544 1128.35 25.2152 1128.35 23.6102C1128.35 22.0052 1128.99 20.466 1130.13 19.3311Z" fill="white" stroke="white" stroke-width="0.5"/>
<path opacity="0.5" d="M39.2676 24.4992C39.207 23.9613 38.957 23.5446 38.5176 23.2492C38.0782 22.9499 37.5252 22.8003 36.8585 22.8003C36.3812 22.8003 35.9683 22.8761 35.6199 23.0276C35.2714 23.1753 35.0005 23.3799 34.8074 23.6412C34.618 23.8988 34.5233 24.1924 34.5233 24.5219C34.5233 24.7984 34.5877 25.0371 34.7164 25.2378C34.849 25.4386 35.0214 25.6071 35.2335 25.7435C35.4494 25.8761 35.6805 25.9878 35.9267 26.0787C36.1729 26.1659 36.4096 26.2378 36.6369 26.2946L37.7733 26.5901C38.1445 26.681 38.5252 26.8041 38.9153 26.9594C39.3055 27.1147 39.6672 27.3193 40.0005 27.5731C40.3339 27.8268 40.6028 28.1412 40.8074 28.5162C41.0157 28.8912 41.1199 29.3401 41.1199 29.8628C41.1199 30.5219 40.9494 31.1071 40.6085 31.6185C40.2714 32.1299 39.7808 32.5333 39.1369 32.8287C38.4967 33.1242 37.7221 33.2719 36.813 33.2719C35.9418 33.2719 35.188 33.1337 34.5517 32.8571C33.9153 32.5806 33.4172 32.1886 33.0574 31.681C32.6975 31.1696 32.4986 30.5636 32.4608 29.8628H34.2221C34.2562 30.2833 34.3926 30.6337 34.6312 30.914C34.8736 31.1905 35.1824 31.3969 35.5574 31.5333C35.9361 31.6659 36.3509 31.7321 36.8017 31.7321C37.2979 31.7321 37.7392 31.6545 38.1255 31.4992C38.5157 31.3401 38.8225 31.1204 39.046 30.8401C39.2695 30.556 39.3812 30.2246 39.3812 29.8458C39.3812 29.5011 39.2827 29.2189 39.0858 28.9992C38.8926 28.7795 38.6293 28.5977 38.296 28.4537C37.9664 28.3098 37.5933 28.1829 37.1767 28.0731L35.8017 27.6981C34.8699 27.4443 34.1312 27.0712 33.5858 26.5787C33.0441 26.0863 32.7733 25.4348 32.7733 24.6242C32.7733 23.9537 32.9551 23.3685 33.3187 22.8685C33.6824 22.3685 34.1748 21.9803 34.796 21.7037C35.4172 21.4234 36.118 21.2833 36.8983 21.2833C37.6861 21.2833 38.3812 21.4215 38.9835 21.6981C39.5895 21.9746 40.0668 22.3553 40.4153 22.8401C40.7638 23.3212 40.9456 23.8742 40.9608 24.4992H39.2676ZM47.0029 33.2549C46.143 33.2549 45.4025 33.0712 44.7813 32.7037C44.1638 32.3325 43.6866 31.8117 43.3495 31.1412C43.0161 30.467 42.8495 29.6772 42.8495 28.7719C42.8495 27.878 43.0161 27.0901 43.3495 26.4083C43.6866 25.7265 44.1563 25.1943 44.7585 24.8117C45.3646 24.4291 46.0729 24.2378 46.8835 24.2378C47.376 24.2378 47.8532 24.3193 48.3154 24.4821C48.7775 24.645 49.1923 24.9007 49.5597 25.2492C49.9271 25.5977 50.2169 26.0503 50.429 26.6071C50.6411 27.1602 50.7472 27.8325 50.7472 28.6242V29.2265H43.8097V27.9537H49.0824C49.0824 27.5068 48.9915 27.1109 48.8097 26.7662C48.6279 26.4178 48.3722 26.1431 48.0426 25.9424C47.7169 25.7416 47.3343 25.6412 46.8949 25.6412C46.4176 25.6412 46.001 25.7587 45.6449 25.9935C45.2926 26.2246 45.0199 26.5276 44.8267 26.9026C44.6373 27.2738 44.5426 27.6772 44.5426 28.1128V29.1071C44.5426 29.6905 44.6449 30.1867 44.8495 30.5958C45.0578 31.0049 45.3476 31.3174 45.7188 31.5333C46.09 31.7454 46.5237 31.8515 47.0199 31.8515C47.3419 31.8515 47.6354 31.806 47.9006 31.7151C48.1657 31.6204 48.3949 31.4803 48.5881 31.2946C48.7813 31.109 48.929 30.8799 49.0313 30.6071L50.6392 30.8969C50.5104 31.3704 50.2794 31.7852 49.946 32.1412C49.6165 32.4935 49.2017 32.7681 48.7017 32.9651C48.2055 33.1583 47.6392 33.2549 47.0029 33.2549ZM55.3319 33.2719C54.7789 33.2719 54.2789 33.1696 53.8319 32.9651C53.3849 32.7568 53.0308 32.4556 52.7694 32.0617C52.5118 31.6678 52.383 31.1848 52.383 30.6128C52.383 30.1204 52.4777 29.7151 52.6671 29.3969C52.8565 29.0787 53.1122 28.8268 53.4342 28.6412C53.7561 28.4556 54.116 28.3155 54.5137 28.2208C54.9114 28.1261 55.3167 28.0541 55.7296 28.0049C56.2524 27.9443 56.6766 27.895 57.0024 27.8571C57.3281 27.8155 57.5649 27.7492 57.7126 27.6583C57.8603 27.5674 57.9342 27.4196 57.9342 27.2151V27.1753C57.9342 26.6791 57.794 26.2946 57.5137 26.0219C57.2372 25.7492 56.8243 25.6128 56.2751 25.6128C55.7031 25.6128 55.2524 25.7397 54.9228 25.9935C54.597 26.2435 54.3717 26.5219 54.2467 26.8287L52.6501 26.4651C52.8395 25.9348 53.116 25.5068 53.4796 25.181C53.847 24.8515 54.2694 24.6128 54.7467 24.4651C55.2239 24.3136 55.7258 24.2378 56.2524 24.2378C56.6008 24.2378 56.9702 24.2795 57.3603 24.3628C57.7542 24.4424 58.1217 24.5901 58.4626 24.806C58.8073 25.0219 59.0895 25.3306 59.3092 25.7321C59.5289 26.1299 59.6387 26.6469 59.6387 27.2833V33.0787H57.9796V31.8856H57.9114C57.8016 32.1053 57.6368 32.3212 57.4171 32.5333C57.1974 32.7454 56.9152 32.9215 56.5705 33.0617C56.2258 33.2018 55.813 33.2719 55.3319 33.2719ZM55.7012 31.9083C56.1709 31.9083 56.5724 31.8155 56.9058 31.6299C57.2429 31.4443 57.4986 31.2018 57.6728 30.9026C57.8508 30.5996 57.9399 30.2757 57.9399 29.931V28.806C57.8792 28.8666 57.7618 28.9234 57.5876 28.9765C57.4171 29.0257 57.222 29.0693 57.0024 29.1071C56.7827 29.1412 56.5686 29.1734 56.3603 29.2037C56.152 29.2303 55.9777 29.253 55.8376 29.2719C55.508 29.3136 55.2069 29.3837 54.9342 29.4821C54.6652 29.5806 54.4493 29.7227 54.2864 29.9083C54.1274 30.0901 54.0478 30.3325 54.0478 30.6356C54.0478 31.056 54.2031 31.3742 54.5137 31.5901C54.8243 31.8022 55.2202 31.9083 55.7012 31.9083ZM62.0615 33.0787V24.3515H63.7035V25.7378H63.7945C63.9535 25.2681 64.2338 24.8988 64.6354 24.6299C65.0407 24.3571 65.499 24.2208 66.0104 24.2208C66.1164 24.2208 66.2414 24.2246 66.3854 24.2321C66.5331 24.2397 66.6486 24.2492 66.732 24.2606V25.8856C66.6638 25.8666 66.5426 25.8458 66.3683 25.8231C66.1941 25.7965 66.0198 25.7833 65.8456 25.7833C65.4441 25.7833 65.0861 25.8685 64.7717 26.039C64.4611 26.2056 64.2149 26.4386 64.0331 26.7378C63.8513 27.0333 63.7604 27.3704 63.7604 27.7492V33.0787H62.0615ZM71.7258 33.2549C70.8811 33.2549 70.1538 33.0636 69.5439 32.681C68.9379 32.2946 68.472 31.7624 68.1462 31.0844C67.8205 30.4064 67.6576 29.6299 67.6576 28.7549C67.6576 27.8685 67.8242 27.0863 68.1576 26.4083C68.4909 25.7265 68.9606 25.1943 69.5667 24.8117C70.1727 24.4291 70.8867 24.2378 71.7087 24.2378C72.3716 24.2378 72.9625 24.3609 73.4814 24.6071C74.0004 24.8496 74.4189 25.1905 74.7371 25.6299C75.0591 26.0693 75.2504 26.5825 75.311 27.1696H73.6576C73.5667 26.7606 73.3583 26.4083 73.0326 26.1128C72.7106 25.8174 72.2788 25.6696 71.7371 25.6696C71.2636 25.6696 70.8489 25.7946 70.4928 26.0446C70.1405 26.2909 69.8659 26.6431 69.6689 27.1015C69.472 27.556 69.3735 28.0939 69.3735 28.7151C69.3735 29.3515 69.4701 29.9007 69.6633 30.3628C69.8564 30.8249 70.1292 31.1829 70.4814 31.4367C70.8375 31.6905 71.2561 31.8174 71.7371 31.8174C72.0591 31.8174 72.3508 31.7587 72.6121 31.6412C72.8773 31.52 73.0989 31.3477 73.2769 31.1242C73.4587 30.9007 73.5856 30.6318 73.6576 30.3174H75.311C75.2504 30.8818 75.0667 31.3856 74.7599 31.8287C74.453 32.2719 74.042 32.6204 73.5269 32.8742C73.0155 33.128 72.4152 33.2549 71.7258 33.2549ZM78.9866 27.8969V33.0787H77.2877V21.4424H78.9639V25.7719H79.0718C79.2764 25.3022 79.5889 24.9291 80.0093 24.6526C80.4298 24.3761 80.979 24.2378 81.6571 24.2378C82.2556 24.2378 82.7783 24.3609 83.2252 24.6071C83.676 24.8534 84.0245 25.2208 84.2707 25.7094C84.5207 26.1943 84.6457 26.8003 84.6457 27.5276V33.0787H82.9468V27.7321C82.9468 27.092 82.7821 26.5958 82.4525 26.2435C82.123 25.8874 81.6646 25.7094 81.0775 25.7094C80.676 25.7094 80.3162 25.7946 79.998 25.9651C79.6836 26.1356 79.4355 26.3856 79.2537 26.7151C79.0756 27.0409 78.9866 27.4348 78.9866 27.8969ZM91.6035 33.0787V21.4424H93.3023V25.7662H93.4046C93.5031 25.5844 93.6452 25.3742 93.8308 25.1356C94.0164 24.8969 94.2739 24.6886 94.6035 24.5106C94.933 24.3287 95.3686 24.2378 95.9103 24.2378C96.6148 24.2378 97.2436 24.4159 97.7967 24.7719C98.3497 25.128 98.7834 25.6412 99.0978 26.3117C99.416 26.9821 99.5751 27.789 99.5751 28.7321C99.5751 29.6753 99.4179 30.484 99.1035 31.1583C98.7891 31.8287 98.3573 32.3458 97.808 32.7094C97.2588 33.0693 96.6319 33.2492 95.9274 33.2492C95.397 33.2492 94.9633 33.1602 94.6262 32.9821C94.2929 32.8041 94.0315 32.5958 93.8421 32.3571C93.6527 32.1185 93.5069 31.9064 93.4046 31.7208H93.2626V33.0787H91.6035ZM93.2683 28.7151C93.2683 29.3287 93.3573 29.8666 93.5353 30.3287C93.7133 30.7909 93.9709 31.1526 94.308 31.414C94.6452 31.6715 95.058 31.8003 95.5467 31.8003C96.0542 31.8003 96.4785 31.6659 96.8194 31.3969C97.1603 31.1242 97.4179 30.7549 97.5921 30.289C97.7702 29.8231 97.8592 29.2984 97.8592 28.7151C97.8592 28.1393 97.772 27.6223 97.5978 27.164C97.4273 26.7056 97.1698 26.3439 96.8251 26.0787C96.4842 25.8136 96.058 25.681 95.5467 25.681C95.0542 25.681 94.6376 25.8079 94.2967 26.0617C93.9595 26.3155 93.7039 26.6696 93.5296 27.1242C93.3554 27.5787 93.2683 28.109 93.2683 28.7151ZM102.42 36.3515C102.166 36.3515 101.935 36.3306 101.727 36.289C101.518 36.2511 101.363 36.2094 101.261 36.164L101.67 34.7719C101.98 34.8553 102.257 34.8912 102.499 34.8799C102.742 34.8685 102.956 34.7776 103.141 34.6071C103.331 34.4367 103.497 34.1583 103.641 33.7719L103.852 33.1924L100.658 24.3515H102.477L104.687 31.1242H104.778L106.988 24.3515H108.812L105.215 34.2435C105.049 34.6981 104.836 35.0825 104.579 35.3969C104.321 35.7151 104.014 35.9537 103.658 36.1128C103.302 36.2719 102.889 36.3515 102.42 36.3515ZM116.662 27.8969V33.0787H114.963V24.3515H116.593V25.7719H116.701C116.902 25.3098 117.217 24.9386 117.645 24.6583C118.076 24.378 118.62 24.2378 119.275 24.2378C119.87 24.2378 120.391 24.3628 120.838 24.6128C121.285 24.859 121.631 25.2265 121.878 25.7151C122.124 26.2037 122.247 26.8079 122.247 27.5276V33.0787H120.548V27.7321C120.548 27.0996 120.383 26.6053 120.054 26.2492C119.724 25.8893 119.271 25.7094 118.696 25.7094C118.302 25.7094 117.951 25.7946 117.645 25.9651C117.342 26.1356 117.101 26.3856 116.923 26.7151C116.749 27.0409 116.662 27.4348 116.662 27.8969ZM127.225 33.2719C126.672 33.2719 126.172 33.1696 125.725 32.9651C125.278 32.7568 124.924 32.4556 124.663 32.0617C124.405 31.6678 124.276 31.1848 124.276 30.6128C124.276 30.1204 124.371 29.7151 124.56 29.3969C124.75 29.0787 125.005 28.8268 125.327 28.6412C125.649 28.4556 126.009 28.3155 126.407 28.2208C126.805 28.1261 127.21 28.0541 127.623 28.0049C128.145 27.9443 128.57 27.895 128.895 27.8571C129.221 27.8155 129.458 27.7492 129.606 27.6583C129.753 27.5674 129.827 27.4196 129.827 27.2151V27.1753C129.827 26.6791 129.687 26.2946 129.407 26.0219C129.13 25.7492 128.717 25.6128 128.168 25.6128C127.596 25.6128 127.145 25.7397 126.816 25.9935C126.49 26.2435 126.265 26.5219 126.14 26.8287L124.543 26.4651C124.733 25.9348 125.009 25.5068 125.373 25.181C125.74 24.8515 126.163 24.6128 126.64 24.4651C127.117 24.3136 127.619 24.2378 128.145 24.2378C128.494 24.2378 128.863 24.2795 129.253 24.3628C129.647 24.4424 130.015 24.5901 130.356 24.806C130.7 25.0219 130.983 25.3306 131.202 25.7321C131.422 26.1299 131.532 26.6469 131.532 27.2833V33.0787H129.873V31.8856H129.805C129.695 32.1053 129.53 32.3212 129.31 32.5333C129.091 32.7454 128.808 32.9215 128.464 33.0617C128.119 33.2018 127.706 33.2719 127.225 33.2719ZM127.594 31.9083C128.064 31.9083 128.466 31.8155 128.799 31.6299C129.136 31.4443 129.392 31.2018 129.566 30.9026C129.744 30.5996 129.833 30.2757 129.833 29.931V28.806C129.772 28.8666 129.655 28.9234 129.481 28.9765C129.31 29.0257 129.115 29.0693 128.895 29.1071C128.676 29.1412 128.462 29.1734 128.253 29.2037C128.045 29.2303 127.871 29.253 127.731 29.2719C127.401 29.3136 127.1 29.3837 126.827 29.4821C126.558 29.5806 126.342 29.7227 126.18 29.9083C126.02 30.0901 125.941 30.3325 125.941 30.6356C125.941 31.056 126.096 31.3742 126.407 31.5901C126.717 31.8022 127.113 31.9083 127.594 31.9083ZM133.955 33.0787V24.3515H135.585V25.7719H135.693C135.875 25.2909 136.172 24.9159 136.585 24.6469C136.998 24.3742 137.493 24.2378 138.068 24.2378C138.652 24.2378 139.14 24.3742 139.534 24.6469C139.932 24.9196 140.225 25.2946 140.415 25.7719H140.506C140.714 25.306 141.046 24.9348 141.5 24.6583C141.955 24.378 142.496 24.2378 143.125 24.2378C143.917 24.2378 144.563 24.4859 145.063 24.9821C145.566 25.4784 145.818 26.2265 145.818 27.2265V33.0787H144.119V27.3856C144.119 26.7946 143.958 26.3666 143.636 26.1015C143.314 25.8363 142.93 25.7037 142.483 25.7037C141.93 25.7037 141.5 25.8742 141.193 26.2151C140.886 26.5522 140.733 26.9859 140.733 27.5162V33.0787H139.04V27.2776C139.04 26.8041 138.892 26.4234 138.597 26.1356C138.301 25.8477 137.917 25.7037 137.443 25.7037C137.121 25.7037 136.824 25.789 136.551 25.9594C136.282 26.1261 136.064 26.359 135.898 26.6583C135.735 26.9575 135.653 27.3041 135.653 27.6981V33.0787H133.955ZM152.017 33.2549C151.157 33.2549 150.416 33.0712 149.795 32.7037C149.178 32.3325 148.7 31.8117 148.363 31.1412C148.03 30.467 147.863 29.6772 147.863 28.7719C147.863 27.878 148.03 27.0901 148.363 26.4083C148.7 25.7265 149.17 25.1943 149.772 24.8117C150.378 24.4291 151.087 24.2378 151.897 24.2378C152.39 24.2378 152.867 24.3193 153.329 24.4821C153.791 24.645 154.206 24.9007 154.573 25.2492C154.941 25.5977 155.231 26.0503 155.443 26.6071C155.655 27.1602 155.761 27.8325 155.761 28.6242V29.2265H148.823V27.9537H154.096C154.096 27.5068 154.005 27.1109 153.823 26.7662C153.642 26.4178 153.386 26.1431 153.056 25.9424C152.731 25.7416 152.348 25.6412 151.909 25.6412C151.431 25.6412 151.015 25.7587 150.659 25.9935C150.306 26.2246 150.034 26.5276 149.84 26.9026C149.651 27.2738 149.556 27.6772 149.556 28.1128V29.1071C149.556 29.6905 149.659 30.1867 149.863 30.5958C150.072 31.0049 150.361 31.3174 150.733 31.5333C151.104 31.7454 151.537 31.8515 152.034 31.8515C152.356 31.8515 152.649 31.806 152.914 31.7151C153.179 31.6204 153.409 31.4803 153.602 31.2946C153.795 31.109 153.943 30.8799 154.045 30.6071L155.653 30.8969C155.524 31.3704 155.293 31.7852 154.96 32.1412C154.63 32.4935 154.215 32.7681 153.715 32.9651C153.219 33.1583 152.653 33.2549 152.017 33.2549Z" fill="black"/>
<path d="M1086.92 21.0275L1074.31 33.6439" stroke="#B9B9B9" stroke-width="2" stroke-linecap="round" stroke-linejoin="round"/>
<path d="M1074.31 21.0275L1086.92 33.6439" stroke="#B9B9B9" stroke-width="2" stroke-linecap="round" stroke-linejoin="round"/>
</svg>
